<svg xmlns="http://www.w3.org/2000/svg" version="1.1" xmlns:xlink="http://www.w3.org/1999/xlink" xmlns:svgjs="http://svgjs.dev/svgjs" width="2000" height="1500" viewBox="0 0 2000 1500"><rect width="2000" height="1500" fill="#ffffff"></rect><g transform="matrix(0.75,0,0,0.75,249.090909090909,282.7536437246963)"><svg viewBox="0 0 396 247" data-background-color="#ffffff" preserveAspectRatio="xMidYMid meet" height="1247" width="2000" xmlns="http://www.w3.org/2000/svg" xmlns:xlink="http://www.w3.org/1999/xlink"><g id="tight-bounds" transform="matrix(1,0,0,1,0.2400000000000091,-0.09999999999999432)"><svg viewBox="0 0 395.52 247.2" height="247.2" width="395.52"><g><svg></svg></g><g><svg viewBox="0 0 395.52 247.2" height="247.2" width="395.52"><mask id="3ce5e3b4-d1c3-41ae-a242-18ab8b2ec3e4"><rect width="640" height="400" fill="white"></rect><g transform="matrix(1,0,0,1,39.55199999999999,70.48476367711324)"><svg viewBox="0 0 316.416 106.23047264577352" height="106.23047264577352" width="316.416"><g><svg viewBox="0 0 316.416 106.23047264577352" height="106.23047264577352" width="316.416"><g><svg viewBox="0 0 316.416 106.23047264577352" height="106.23047264577352" width="316.416"><g><svg viewBox="0 0 316.416 106.23047264577352" height="106.23047264577352" width="316.416"><g id="SvgjsG2339"><svg viewBox="0 0 316.416 106.23047264577352" height="106.23047264577352" width="316.416" id="SvgjsSvg2338"><g><svg viewBox="0 0 316.416 73.62316442605996" height="73.62316442605996" width="316.416"><g transform="matrix(1,0,0,1,0,0)"><svg width="316.416" viewBox="-2.95 -41.5 194.39 46" height="73.62316442605996" data-palette-color="#3d9970"><path d="M13.55-10.65Q13.55-6.05 15.13-3.6 16.7-1.15 20.8-1.15 24.9-1.15 27.1-3.7 29.3-6.25 29.3-11.45L29.3-11.45 29.3-34.05 26.05-34.05 26.05-35 33.35-35 33.35-34.05 30.6-34.05 30.6-11.8Q30.6-5.6 27.85-2.55 25.1 0.5 18.13 0.5 11.15 0.5 7.48-2.4 3.8-5.3 3.8-12.35L3.8-12.35 3.8-34.05 1.05-34.05 1.05-35 16.8-35 16.8-34.05 13.55-34.05 13.55-10.65ZM36.9-7.15L36.9-7.15 36.9-22.9 34.15-22.9 34.15-23.8 36.9-23.8 36.9-30.25 46.2-32.55 46.2-23.8 52.7-23.8 52.7-22.9 46.2-22.9 46.2-6.05Q46.2-3.7 46.67-2.6 47.15-1.5 48.65-1.5 50.15-1.5 51.27-3 52.4-4.5 52.75-7.1L52.75-7.1 53.6-7Q53.2-3.55 51.4-1.53 49.6 0.5 45.45 0.5 41.3 0.5 39.1-1.15 36.9-2.8 36.9-7.15ZM84.34 0L70.45 0 70.45-0.9 72.75-0.9 67.09-12.5 66.15-12.25 66.15-0.9 68.45-0.9 68.45 0 54.1 0 54.1-0.9 56.85-0.9 56.85-36.6 53.9-36.6 53.9-37.5 66.15-37.5 66.15-13.25 66.95-13.55 78.2-22.9 73.5-22.9 73.5-23.8 83.34-23.8 83.34-22.9 79.84-22.9 73.9-17.85 82.55-0.9 84.34-0.9 84.34 0ZM96.09-11.75L96.09-11.75 97.54-11.75 97.54-15.6Q97.54-20.35 97.02-21.98 96.49-23.6 94.99-23.6L94.99-23.6Q94.09-23.6 93.37-23.13 92.64-22.65 92.64-21.83 92.64-21 92.94-20.15L92.94-20.15 94.19-20.15Q94.59-19.1 94.59-17.63 94.59-16.15 93.34-15.08 92.09-14 90.19-14L90.19-14Q85.89-14 85.89-18.15L85.89-18.15Q85.89-24.3 96.34-24.3L96.34-24.3Q102.29-24.3 104.57-22.28 106.84-20.25 106.84-14.85L106.84-14.85 106.84-4.7Q106.84-2.1 108.29-2.1L108.29-2.1Q109.99-2.1 110.29-7.25L110.29-7.25 111.04-7.2Q110.84-2.8 109.39-1.15 107.94 0.5 104.64 0.5L104.64 0.5Q98.64 0.5 97.74-3.2L97.74-3.2Q97.09-1.3 95.79-0.4 94.49 0.5 91.99 0.5L91.99 0.5Q84.59 0.5 84.59-5.55L84.59-5.55Q84.59-9.1 87.42-10.43 90.24-11.75 96.09-11.75ZM94.09-5.6Q94.09-3 94.37-2.25 94.64-1.5 95.42-1.5 96.19-1.5 96.87-2.78 97.54-4.05 97.54-6.3L97.54-6.3 97.54-10.95 97.19-10.95Q94.09-10.95 94.09-6.4L94.09-6.4 94.09-5.6ZM128.24-22.4L128.24-22.4Q126.39-22.4 124.99-20 123.59-17.6 123.59-14.3L123.59-14.3 123.59-0.9 127.14-0.9 127.14 0 111.54 0 111.54-0.9 114.29-0.9 114.29-22.9 111.54-22.9 111.54-23.8 123.59-23.8 123.59-19Q124.24-21.55 126.09-22.93 127.94-24.3 130.29-24.3 132.64-24.3 134.12-22.98 135.59-21.65 135.59-19.23 135.59-16.8 134.49-15.5 133.39-14.2 131.12-14.2 128.84-14.2 127.77-15.7 126.69-17.2 127.49-19.85L127.49-19.85 129.29-19.85Q130.54-22.4 128.24-22.4ZM137.44 0.5L136.84 0.5 136.84-8.45 137.44-8.45Q138.74-4.1 140.94-2.35 143.14-0.6 146.44-0.6L146.44-0.6Q151.54-0.6 151.54-3.85L151.54-3.85Q151.54-5.25 150.29-5.95L150.29-5.95Q148.34-7.05 145.29-7.65L145.29-7.65Q141.89-8.55 139.59-10.05L139.59-10.05Q136.84-11.85 136.84-15.75 136.84-19.65 139.24-21.98 141.64-24.3 145.64-24.3L145.64-24.3Q148.09-24.3 150.69-23.15L150.69-23.15Q151.64-22.75 152.14-22.75 152.64-22.75 152.99-23.1 153.34-23.45 153.84-24.4L153.84-24.4 154.39-24.4 154.39-16.75 153.79-16.75Q151.24-23.25 145.89-23.25L145.89-23.25Q143.54-23.25 142.39-22.43 141.24-21.6 141.24-20.35L141.24-20.35Q141.24-19.6 141.59-19.18 141.94-18.75 142.14-18.55 142.34-18.35 142.79-18.13 143.24-17.9 143.54-17.78 143.84-17.65 144.46-17.45 145.09-17.25 145.39-17.2L145.39-17.2Q148.79-16.35 150.29-15.73 151.79-15.1 153.14-14.2L153.14-14.2Q155.89-12.3 155.89-8.08 155.89-3.85 153.39-1.68 150.89 0.5 146.54 0.5L146.54 0.5Q143.44 0.5 140.54-0.95L140.54-0.95Q139.94-1.35 139.59-1.35L139.59-1.35Q138.49-1.35 137.44 0.5L137.44 0.5ZM157.39-36.6L157.39-37.5 169.44-37.5 169.44-19.2Q170.24-21.5 171.89-22.9 173.54-24.3 176.89-24.3L176.89-24.3Q184.64-24.3 184.64-15.95L184.64-15.95 184.64-0.9 187.44-0.9 187.44 0 173.29 0 173.29-0.9 175.34-0.9 175.34-17.15Q175.34-20.15 174.94-21.03 174.54-21.9 173.49-21.9L173.49-21.9Q171.89-21.9 170.66-19.8 169.44-17.7 169.44-14.7L169.44-14.7 169.44-0.9 171.59-0.9 171.59 0 157.39 0 157.39-0.9 160.14-0.9 160.14-36.6 157.39-36.6Z" opacity="1" transform="matrix(1,0,0,1,0,0)" fill="black" class="wordmark-text-0" id="SvgjsPath2337" stroke-width="7" stroke="black" stroke-linejoin="round"></path></svg></g></svg></g><g transform="matrix(1,0,0,1,3.5,88.30016803209925)"><svg viewBox="0 0 309.416 17.930304613674263" height="17.930304613674263" width="309.416"><g transform="matrix(1,0,0,1,0,0)"><svg width="309.416" viewBox="-1.7999999999999998 -38 720.5999999999999 42.7" height="17.930304613674263" data-palette-color="#60a284"><path d="M3.85 0.5L3.85 0.5Q2.9 0.5 2.55-0.05 2.2-0.6 2.2-1.25L2.2-1.25Q2.2-4.35 2.83-8.35 3.45-12.35 4.35-16.3L4.35-16.3Q5.15-19.65 6.13-22.55 7.1-25.45 7.85-27.3L7.85-27.3Q8.95-29.9 10.38-31.28 11.8-32.65 13.7-32.65L13.7-32.65Q15.1-32.65 16.2-31.73 17.3-30.8 17.5-28.4L17.5-28.4Q17.8-25.5 18.2-22.55 18.6-19.6 19.1-17.18 19.6-14.75 20.15-13.45L20.15-13.45Q20.6-12.3 21.45-12.3L21.45-12.3Q22.4-12.3 23.1-13.5L23.1-13.5Q23.75-14.6 24.5-16.5 25.25-18.4 25.98-20.53 26.7-22.65 27.25-24.4L27.25-24.4Q27.9-26.3 28.73-28.23 29.55-30.15 30.85-31.43 32.15-32.7 34.1-32.7L34.1-32.7Q35.9-32.7 36.68-31.48 37.45-30.25 37.45-27.6L37.45-27.6Q37.45-25.55 37.3-23.3L37.3-23.3Q37.25-22 37.18-20.63 37.1-19.25 37.1-17.8L37.1-17.8Q37.1-15.55 37.33-13.05 37.55-10.55 38.23-8.35 38.9-6.15 40.25-4.65L40.25-4.65Q40.65-4.3 40.98-3.85 41.3-3.4 41.3-2.85L41.3-2.85Q41.3-1.6 39.98-0.58 38.65 0.45 36.95 0.45L36.95 0.45Q35.4 0.45 34.65-0.55 33.9-1.55 33.45-3.25L33.45-3.25Q32.95-5.35 32.75-7.75 32.55-10.15 32.55-12.4L32.55-12.4Q32.55-16 32.83-19.03 33.1-22.05 33.1-23.5L33.1-23.5Q33.1-24.3 32.95-24.68 32.8-25.05 32.2-25.05L32.2-25.05Q31.5-25.05 31.03-24.43 30.55-23.8 30.25-22.7L30.25-22.7Q29.6-20.6 28.8-18.2 28-15.8 27.13-13.5 26.25-11.2 25.25-9.4L25.25-9.4Q24.1-7.3 22.78-6.58 21.45-5.85 20.1-5.85L20.1-5.85Q18-5.85 16.93-7.18 15.85-8.5 15.35-10.1L15.35-10.1Q14.7-12.25 14.15-15.73 13.6-19.2 13.35-23.55L13.35-23.55Q13.25-25.4 12.15-25.4L12.15-25.4Q10.95-25.4 10.25-23.6L10.25-23.6Q9.65-21.8 9.1-19.38 8.55-16.95 8.22-14.33 7.9-11.7 7.9-9.15L7.9-9.15Q7.9-7 8.08-5.4 8.25-3.8 8.25-2.4L8.25-2.4Q8.25-1.4 7.48-0.75 6.7-0.1 5.65 0.2 4.6 0.5 3.85 0.5ZM52.5 0.65L52.5 0.65Q48.7 0.65 46.58-1.53 44.45-3.7 44.45-7.6L44.45-7.6Q44.45-11.15 46-14.05 47.55-16.95 50.18-18.68 52.8-20.4 55.95-20.4L55.95-20.4Q58.95-20.4 60.75-18.93 62.55-17.45 62.55-15L62.55-15Q62.55-13.05 61.35-11.4 60.15-9.75 58.15-8.78 56.15-7.8 53.7-7.8L53.7-7.8Q50.7-7.8 48.8-9.15L48.8-9.15Q48.85-6.85 50.38-5.45 51.9-4.05 54.3-4.05L54.3-4.05Q55.75-4.05 57.28-4.58 58.8-5.1 59.9-6L59.9-6Q60.6-6.6 61.2-6.6L61.2-6.6Q61.7-6.6 62.03-6.28 62.35-5.95 62.35-5.45L62.35-5.45Q62.35-4.35 60.45-2.55L60.45-2.55Q57.1 0.65 52.5 0.65ZM53.25-11.1L53.25-11.1Q55.05-11.1 56.25-11.85 57.45-12.6 57.45-13.75L57.45-13.75Q57.45-14.7 56.65-15.23 55.85-15.75 54.45-15.75L54.45-15.75Q52.6-15.75 51.23-14.78 49.85-13.8 49.25-12.05L49.25-12.05Q49.95-11.6 51.05-11.35 52.15-11.1 53.25-11.1ZM72.65 0.65L72.65 0.65Q69.65 0.65 67.92-1.35 66.2-3.35 66.2-6.8L66.2-6.8Q66.2-9.35 67.03-11.8 67.85-14.25 69.35-16.2 70.85-18.15 72.85-19.3 74.85-20.45 77.2-20.45L77.2-20.45Q78.7-20.45 79.88-20 81.05-19.55 81.95-18.85L81.95-18.85Q81.9-22.25 81.6-24.95 81.3-27.65 80.15-29.95L80.15-29.95Q79.95-30.35 79.83-30.68 79.7-31 79.7-31.3L79.7-31.3Q79.7-32 80.28-32.6 80.85-33.2 81.7-33.6 82.55-34 83.3-34L83.3-34Q84.65-34 85.33-32.83 86-31.65 86.2-29.63 86.4-27.6 86.4-25L86.4-25Q86.4-21.2 86.05-18.15 85.7-15.1 85.4-12.8L85.4-12.8Q85.2-11.3 85.05-10.2 84.9-9.1 84.9-8.4L84.9-8.4Q84.9-4.85 87.95-4.2L87.95-4.2Q88.75-4.05 88.75-3.15L88.75-3.15Q88.75-2.6 88.42-1.75 88.1-0.9 87.25-0.23 86.4 0.45 84.8 0.45L84.8 0.45Q82.65 0.45 81.9-1 81.15-2.45 81.15-5.4L81.15-5.4Q79.75-2.85 77.6-1.1 75.45 0.65 72.65 0.65ZM74.2-4.7L74.2-4.7Q75.6-4.7 77-5.6 78.4-6.5 79.5-8.05L79.5-8.05Q80.15-9 80.67-10.23 81.2-11.45 81.65-12.7L81.65-12.7Q79.1-15 76-15L76-15Q73.3-15 71.7-13.38 70.1-11.75 70.1-9.35L70.1-9.35Q70.1-7.3 71.3-6 72.5-4.7 74.2-4.7ZM96.2-24.85L96.2-24.85Q94.8-24.9 93.95-25.7 93.1-26.5 93.1-27.95L93.1-27.95Q93.15-29.5 94.15-30.48 95.15-31.45 96.7-31.4L96.7-31.4Q98.15-31.35 98.97-30.55 99.8-29.75 99.75-28.3L99.75-28.3Q99.7-26.8 98.75-25.83 97.8-24.85 96.2-24.85ZM96.25 0.5L96.25 0.5Q94.75 0.5 93.9-0.33 93.05-1.15 93.05-3.15L93.05-3.15Q93.05-4.3 93.27-5.4 93.5-6.5 93.8-7.55L93.8-7.55Q94.15-8.65 94.38-9.8 94.6-10.95 94.6-12.25L94.6-12.25Q94.6-13.15 94.35-13.98 94.1-14.8 93.25-15.2L93.25-15.2Q92.6-15.55 92.13-15.93 91.65-16.3 91.65-16.9L91.65-16.9Q91.65-17.6 92.3-18.4 92.95-19.2 94.02-19.78 95.1-20.35 96.25-20.35L96.25-20.35Q97.5-20.35 98.07-19.7 98.65-19.05 98.85-18.05 99.05-17.05 99.05-16L99.05-16Q99.05-14.4 98.8-12.88 98.55-11.35 98.3-10.05L98.3-10.05Q98.1-9.1 98-8.3 97.9-7.5 97.9-6.8L97.9-6.8Q97.9-5.55 98.5-4.93 99.1-4.3 100.2-3.75L100.2-3.75Q100.65-3.5 100.65-3L100.65-3Q100.65-2.6 100.25-1.75 99.85-0.9 98.88-0.2 97.9 0.5 96.25 0.5ZM110.6 0.65L110.6 0.65Q107.6 0.65 105.78-1.23 103.95-3.1 103.95-6.6L103.95-6.6Q103.95-9.1 104.92-11.58 105.9-14.05 107.75-16.05 109.6-18.05 112.2-19.25 114.8-20.45 118.05-20.45L118.05-20.45Q121.05-20.45 123.17-19.43 125.3-18.4 125.3-16.65L125.3-16.65Q125.3-16.2 125.2-15.48 125.1-14.75 124.95-14.3L124.95-14.3Q124.8-13.9 124.53-13.58 124.25-13.25 123.8-13.25L123.8-13.25Q123.6-13.25 123.05-13.4L123.05-13.4Q122.85-12.35 122.75-11.35 122.65-10.35 122.65-9.35L122.65-9.35Q122.65-7.45 123.22-5.98 123.8-4.5 125.5-4.15L125.5-4.15Q125.95-4.05 126.22-3.85 126.5-3.65 126.5-3L126.5-3Q126.5-2.45 126.22-1.6 125.95-0.75 125.17-0.08 124.4 0.6 122.95 0.6L122.95 0.6Q121 0.6 119.95-0.83 118.9-2.25 118.9-4.9L118.9-4.9Q117.55-2.45 115.47-0.9 113.4 0.65 110.6 0.65ZM112.2-4.55L112.2-4.55Q114.2-4.55 115.72-5.8 117.25-7.05 118.1-8.95L118.1-8.95Q118.65-10.15 118.95-11.58 119.25-13 119.35-14.4L119.35-14.4Q118.5-14.8 117.4-15.05 116.3-15.3 115.1-15.3L115.1-15.3Q112.05-15.3 110.08-13.5 108.1-11.7 108.1-9L108.1-9Q108.1-7 109.2-5.78 110.3-4.55 112.2-4.55ZM136.9 0.65L136.9 0.65Q133.85 0.65 132.53-1.38 131.2-3.4 131.2-6.6L131.2-6.6Q131.2-7.75 131.32-8.85 131.45-9.95 131.6-11.05L131.6-11.05Q131.75-12.15 131.9-13.2 132.05-14.25 132.15-15.2L132.15-15.2Q131.1-14.9 130.05-14.9L130.05-14.9Q128.95-14.9 128.95-15.8L128.95-15.8Q128.95-16.75 129.8-18.13 130.65-19.5 131.93-20.85 133.2-22.2 134.47-23.13 135.75-24.05 136.65-24.05L136.65-24.05Q137.75-24.05 137.75-22.15L137.75-22.15Q137.75-21.65 137.68-21.13 137.6-20.6 137.5-20.05L137.5-20.05Q138.45-20.25 139.43-20.4 140.4-20.55 141.3-20.55L141.3-20.55Q142.45-20.55 143.07-20.15 143.7-19.75 143.7-18.6L143.7-18.6Q143.7-17.4 143.13-16.2 142.55-15 141.85-15L141.85-15Q141.7-15 141.35-15.05 141-15.1 140.5-15.2L140.5-15.2Q139.85-15.35 138.85-15.5 137.85-15.65 136.45-15.65L136.45-15.65Q136.1-14.1 135.82-12.48 135.55-10.85 135.55-9.55L135.55-9.55Q135.55-6.65 137-5.6 138.45-4.55 141.2-4.55L141.2-4.55Q142.05-4.55 142.4-4.28 142.75-4 142.75-3.3L142.75-3.3Q142.75-1.65 141.05-0.5 139.35 0.65 136.9 0.65ZM154.25 0.65L154.25 0.65Q150.8 0.65 148.72-1.23 146.65-3.1 146.65-6.75L146.65-6.75Q146.65-8.45 147.13-10.05 147.6-11.65 148.4-13.05L148.4-13.05Q147.6-12.55 147.2-12.55L147.2-12.55Q146.6-12.55 146.38-13.23 146.15-13.9 146.15-14.55L146.15-14.55Q146.15-15.7 146.63-16.38 147.1-17.05 147.55-17.4L147.55-17.4Q148.6-18.3 150.85-19.38 153.1-20.45 156.25-20.45L156.25-20.45Q160.55-20.45 162.92-18.05 165.3-15.65 165.3-11.35L165.3-11.35Q165.3-8 163.9-5.28 162.5-2.55 160.02-0.95 157.55 0.65 154.25 0.65ZM155.8-4.45L155.8-4.45Q158.3-4.45 160.02-6.03 161.75-7.6 161.75-10.2L161.75-10.2Q161.75-12.9 160-14.05 158.25-15.2 155.95-15.2L155.95-15.2Q154.9-15.2 154.05-15 153.2-14.8 152.45-14.5L152.45-14.5Q151.75-13.5 151.2-12.25 150.65-11 150.65-9.5L150.65-9.5Q150.65-7 152.15-5.73 153.65-4.45 155.8-4.45ZM172.15 0.55L172.15 0.55Q171.35 0.55 170.88 0.28 170.4 0 170.55-0.65L170.55-0.65Q171.1-2.8 171.47-5.03 171.85-7.25 171.85-9.3L171.85-9.3Q171.85-11.95 171.53-13.18 171.2-14.4 170.65-14.88 170.1-15.35 169.3-15.6L169.3-15.6Q168.95-15.75 168.68-16 168.4-16.25 168.4-16.7L168.4-16.7Q168.4-17.4 168.95-18.25 169.5-19.1 170.5-19.73 171.5-20.35 172.8-20.35L172.8-20.35Q174.5-20.35 175.18-19.18 175.85-18 175.85-16.1L175.85-16.1Q176.75-18.1 178.07-19.28 179.4-20.45 181.4-20.45L181.4-20.45Q182.75-20.45 183.65-19.85 184.55-19.25 184.55-17.9L184.55-17.9Q184.55-16.55 183.68-15.38 182.8-14.2 181.9-14.2L181.9-14.2Q181.75-14.2 181.55-14.25 181.35-14.3 181.2-14.5L181.2-14.5Q180.55-15.3 179.6-15.3L179.6-15.3Q178.15-15.3 177.05-13.4 175.95-11.5 175.85-8.15L175.85-8.15Q175.9-6.9 175.93-5.6 175.95-4.3 175.95-3.7L175.95-3.7Q175.95-1.85 174.93-0.65 173.9 0.55 172.15 0.55ZM208.25 0.65L208.25 0.65Q206.4 0.65 205.07 0 203.75-0.65 202.75-1.65L202.75-1.65Q202.25-0.8 201.57-0.13 200.9 0.55 200.05 0.55L200.05 0.55Q199.5 0.55 199 0.23 198.5-0.1 198.6-0.65L198.6-0.65Q199.35-4.65 199.88-8.75 200.4-12.85 200.4-17.1L200.4-17.1Q200.4-20.65 200.15-23.75 199.9-26.85 198.6-29.45L198.6-29.45Q198.35-29.95 198.18-30.4 198-30.85 198-31.25L198-31.25Q198-32.2 199.1-33.1 200.2-34 201.45-34L201.45-34Q203.25-34 203.9-31.8 204.55-29.6 204.55-25.3L204.55-25.3Q204.55-21.65 204.22-18.63 203.9-15.6 203.5-13.45L203.5-13.45Q204.9-16.4 207.32-18.43 209.75-20.45 212.8-20.45L212.8-20.45Q215.85-20.45 217.57-18.43 219.3-16.4 219.3-12.95L219.3-12.95Q219.3-10.4 218.5-7.98 217.7-5.55 216.25-3.6 214.8-1.65 212.78-0.5 210.75 0.65 208.25 0.65ZM209.4-4.75L209.4-4.75Q212.25-4.75 213.8-6.55 215.35-8.35 215.35-10.7L215.35-10.7Q215.35-12.75 214.22-13.88 213.1-15 211.25-15L211.25-15Q209.4-15 207.95-13.88 206.5-12.75 205.5-10.93 204.5-9.1 203.95-7L203.95-7Q205.1-5.9 206.53-5.33 207.95-4.75 209.4-4.75ZM231 0.65L231 0.65Q227.2 0.65 225.07-1.53 222.95-3.7 222.95-7.6L222.95-7.6Q222.95-11.15 224.5-14.05 226.05-16.95 228.68-18.68 231.3-20.4 234.45-20.4L234.45-20.4Q237.45-20.4 239.25-18.93 241.05-17.45 241.05-15L241.05-15Q241.05-13.05 239.85-11.4 238.65-9.75 236.65-8.78 234.65-7.8 232.2-7.8L232.2-7.8Q229.2-7.8 227.3-9.15L227.3-9.15Q227.35-6.85 228.88-5.45 230.4-4.05 232.8-4.05L232.8-4.05Q234.25-4.05 235.78-4.58 237.3-5.1 238.4-6L238.4-6Q239.1-6.6 239.7-6.6L239.7-6.6Q240.2-6.6 240.53-6.28 240.85-5.95 240.85-5.45L240.85-5.45Q240.85-4.35 238.95-2.55L238.95-2.55Q235.6 0.65 231 0.65ZM231.75-11.1L231.75-11.1Q233.55-11.1 234.75-11.85 235.95-12.6 235.95-13.75L235.95-13.75Q235.95-14.7 235.15-15.23 234.35-15.75 232.95-15.75L232.95-15.75Q231.1-15.75 229.72-14.78 228.35-13.8 227.75-12.05L227.75-12.05Q228.45-11.6 229.55-11.35 230.65-11.1 231.75-11.1ZM252.2 0.65L252.2 0.65Q249.15 0.65 247.82-1.38 246.5-3.4 246.5-6.6L246.5-6.6Q246.5-7.75 246.63-8.85 246.75-9.95 246.9-11.05L246.9-11.05Q247.05-12.15 247.2-13.2 247.35-14.25 247.45-15.2L247.45-15.2Q246.4-14.9 245.35-14.9L245.35-14.9Q244.25-14.9 244.25-15.8L244.25-15.8Q244.25-16.75 245.1-18.13 245.95-19.5 247.22-20.85 248.5-22.2 249.78-23.13 251.05-24.05 251.95-24.05L251.95-24.05Q253.05-24.05 253.05-22.15L253.05-22.15Q253.05-21.65 252.97-21.13 252.9-20.6 252.8-20.05L252.8-20.05Q253.75-20.25 254.72-20.4 255.7-20.55 256.6-20.55L256.6-20.55Q257.75-20.55 258.38-20.15 259-19.75 259-18.6L259-18.6Q259-17.4 258.43-16.2 257.85-15 257.15-15L257.15-15Q257-15 256.65-15.05 256.3-15.1 255.8-15.2L255.8-15.2Q255.15-15.35 254.15-15.5 253.15-15.65 251.75-15.65L251.75-15.65Q251.4-14.1 251.13-12.48 250.85-10.85 250.85-9.55L250.85-9.55Q250.85-6.65 252.3-5.6 253.75-4.55 256.5-4.55L256.5-4.55Q257.35-4.55 257.7-4.28 258.05-4 258.05-3.3L258.05-3.3Q258.05-1.65 256.35-0.5 254.65 0.65 252.2 0.65ZM268.5 0.7L268.5 0.7Q267.1 0.7 266.13-0.13 265.15-0.95 265-3.2L265-3.2Q264.9-4.9 264.57-7 264.25-9.1 263.8-10.95 263.35-12.8 262.75-13.75L262.75-13.75Q262.4-14.3 261.98-14.58 261.55-14.85 260.7-14.95L260.7-14.95Q259.8-15 259.8-16.25L259.8-16.25Q259.8-18.3 260.9-19.28 262-20.25 263.4-20.25L263.4-20.25Q264.9-20.25 265.85-19.28 266.8-18.3 267.32-16.68 267.85-15.05 268.07-13.05 268.3-11.05 268.3-9L268.3-9Q268.3-8.25 268.27-7.53 268.25-6.8 268.25-6.1L268.25-6.1Q268.25-5.6 268.45-5.28 268.65-4.95 269.45-4.95L269.45-4.95Q270.55-4.95 272.05-5.53 273.55-6.1 274.68-7.45 275.8-8.8 275.8-11.05L275.8-11.05Q275.8-12.2 275.45-12.98 275.1-13.75 274.5-14.45L274.5-14.45Q274.3-14.7 274.15-14.95 274-15.2 274-15.55L274-15.55Q274-16.5 274.77-17.07 275.55-17.65 276.52-17.93 277.5-18.2 278.15-18.2L278.15-18.2Q278.8-18.2 279.18-17.88 279.55-17.55 279.75-16.6L279.75-16.6Q279.95-15.95 280.05-15.18 280.15-14.4 280.15-13.4L280.15-13.4Q280.15-11.85 280.02-10.9 279.9-9.95 279.75-9.2L279.75-9.2Q279.6-8.55 279.52-7.93 279.45-7.3 279.45-6.45L279.45-6.45Q279.45-5.55 279.8-5.25 280.15-4.95 280.9-4.95L280.9-4.95Q283.75-4.95 285.55-6.93 287.35-8.9 287.35-11.75L287.35-11.75Q287.35-12.75 287.05-13.63 286.75-14.5 286-15.3L286-15.3Q285.6-15.8 285.35-16.13 285.1-16.45 285.1-16.95L285.1-16.95Q285.1-17.85 285.93-18.6 286.75-19.35 287.88-19.83 289-20.3 289.9-20.3L289.9-20.3Q291.25-20.3 291.65-19.05 292.05-17.8 292.05-16.2L292.05-16.2Q292.05-13.5 291.27-10.58 290.5-7.65 289.05-5.08 287.6-2.5 285.5-0.9 283.4 0.7 280.75 0.7L280.75 0.7Q278.05 0.7 277.05-0.85 276.05-2.4 276.2-4.6L276.2-4.6Q274.7-2.3 272.68-0.8 270.65 0.7 268.5 0.7ZM303.05 0.65L303.05 0.65Q299.25 0.65 297.13-1.53 295-3.7 295-7.6L295-7.6Q295-11.15 296.55-14.05 298.1-16.95 300.73-18.68 303.35-20.4 306.5-20.4L306.5-20.4Q309.5-20.4 311.3-18.93 313.1-17.45 313.1-15L313.1-15Q313.1-13.05 311.9-11.4 310.7-9.75 308.7-8.78 306.7-7.8 304.25-7.8L304.25-7.8Q301.25-7.8 299.35-9.15L299.35-9.15Q299.4-6.85 300.93-5.45 302.45-4.05 304.85-4.05L304.85-4.05Q306.3-4.05 307.82-4.58 309.35-5.1 310.45-6L310.45-6Q311.15-6.6 311.75-6.6L311.75-6.6Q312.25-6.6 312.57-6.28 312.9-5.95 312.9-5.45L312.9-5.45Q312.9-4.35 311-2.55L311-2.55Q307.65 0.65 303.05 0.65ZM303.8-11.1L303.8-11.1Q305.6-11.1 306.8-11.85 308-12.6 308-13.75L308-13.75Q308-14.7 307.2-15.23 306.4-15.75 305-15.75L305-15.75Q303.15-15.75 301.78-14.78 300.4-13.8 299.8-12.05L299.8-12.05Q300.5-11.6 301.6-11.35 302.7-11.1 303.8-11.1ZM324.6 0.65L324.6 0.65Q320.8 0.65 318.68-1.53 316.55-3.7 316.55-7.6L316.55-7.6Q316.55-11.15 318.1-14.05 319.65-16.95 322.28-18.68 324.9-20.4 328.05-20.4L328.05-20.4Q331.05-20.4 332.85-18.93 334.65-17.45 334.65-15L334.65-15Q334.65-13.05 333.45-11.4 332.25-9.75 330.25-8.78 328.25-7.8 325.8-7.8L325.8-7.8Q322.8-7.8 320.9-9.15L320.9-9.15Q320.95-6.85 322.48-5.45 324-4.05 326.4-4.05L326.4-4.05Q327.85-4.05 329.38-4.58 330.9-5.1 332-6L332-6Q332.7-6.6 333.3-6.6L333.3-6.6Q333.8-6.6 334.13-6.28 334.45-5.95 334.45-5.45L334.45-5.45Q334.45-4.35 332.55-2.55L332.55-2.55Q329.2 0.65 324.6 0.65ZM325.35-11.1L325.35-11.1Q327.15-11.1 328.35-11.85 329.55-12.6 329.55-13.75L329.55-13.75Q329.55-14.7 328.75-15.23 327.95-15.75 326.55-15.75L326.55-15.75Q324.7-15.75 323.33-14.78 321.95-13.8 321.35-12.05L321.35-12.05Q322.05-11.6 323.15-11.35 324.25-11.1 325.35-11.1ZM341.3 0.55L341.3 0.55Q339.5 0.55 339.7-0.65L339.7-0.65Q340.25-2.8 340.63-5.03 341-7.25 341-9.3L341-9.3Q341-11.95 340.68-13.18 340.35-14.4 339.8-14.88 339.25-15.35 338.45-15.6L338.45-15.6Q338.1-15.75 337.83-16 337.55-16.25 337.55-16.7L337.55-16.7Q337.55-17.4 338.1-18.25 338.65-19.1 339.68-19.73 340.7-20.35 342-20.35L342-20.35Q343.7-20.35 344.35-19.18 345-18 345-16.1L345-16.1Q345-14.85 344.75-13.3 344.5-11.75 344.25-10.5L344.25-10.5 344.4-10.45Q345.4-13.1 346.83-15.38 348.25-17.65 350.15-19.05 352.05-20.45 354.55-20.45L354.55-20.45Q357.2-20.45 358.6-18.85 360-17.25 360-14.85L360-14.85Q360-13.85 359.78-12.95 359.55-12.05 359.3-11.2L359.3-11.2Q359.05-10.4 358.88-9.55 358.7-8.7 358.7-7.85L358.7-7.85Q358.7-5 361.4-4L361.4-4Q362.1-3.7 362.1-3.1L362.1-3.1Q362.1-2.65 361.8-1.8 361.5-0.95 360.7-0.23 359.9 0.5 358.35 0.5L358.35 0.5Q356.35 0.5 355.25-0.93 354.15-2.35 354.15-4.55L354.15-4.55Q354.15-5.8 354.43-7.08 354.7-8.35 355-9.45L355-9.45Q355.2-10.3 355.38-11.13 355.55-11.95 355.55-12.6L355.55-12.6Q355.55-14.9 353.15-14.9L353.15-14.9Q351.1-14.9 349.55-13.38 348-11.85 346.9-9.55 345.8-7.25 345.1-4.9L345.1-4.9 345.1-3.7Q345.1-1.85 344.08-0.65 343.05 0.55 341.3 0.55ZM381.85 0.5L381.85 0.5Q380.75 0.5 379.98-0.08 379.2-0.65 379.2-2.8L379.2-2.8Q379.2-3.9 379.43-5.48 379.65-7.05 379.9-8.75L379.9-8.75Q380.3-11.15 380.7-14.03 381.1-16.9 381.1-19.75L381.1-19.75Q381.1-22.75 380.9-24.35 380.7-25.95 380.45-26.95L380.45-26.95Q380.35-27.5 380.28-27.95 380.2-28.4 380.2-28.95L380.2-28.95Q380.2-30.55 381.23-31.38 382.25-32.2 383.5-32.2L383.5-32.2Q384.75-32.2 385.6-31.58 386.45-30.95 387.1-30.25L387.1-30.25Q391.4-25.4 394.85-20.08 398.3-14.75 400.6-9.15L400.6-9.15Q400.85-8.75 401.05-8.75L401.05-8.75Q401.35-8.75 401.45-9.15L401.45-9.15Q402.35-15 402.35-19.75L402.35-19.75Q402.35-22.6 402.13-24.28 401.9-25.95 401.58-26.88 401.25-27.8 400.95-28.35L400.95-28.35Q400.8-28.7 400.7-28.98 400.6-29.25 400.6-29.5L400.6-29.5Q400.6-30.1 401.23-30.73 401.85-31.35 402.75-31.75 403.65-32.15 404.5-32.15L404.5-32.15Q405.7-32.15 406.25-31.35 406.8-30.55 406.98-29.38 407.15-28.2 407.15-27L407.15-27Q407.15-25.65 406.9-23.5 406.65-21.35 406.33-18.88 406-16.4 405.78-14 405.55-11.6 405.55-9.75L405.55-9.75Q405.55-8.7 405.63-7.7 405.7-6.7 405.8-5.75L405.8-5.75Q405.95-4.5 405.95-3.55L405.95-3.55Q405.95-1.7 405.03-0.63 404.1 0.45 402.5 0.45L402.5 0.45Q401.4 0.45 400.33-0.2 399.25-0.85 398.7-2.3L398.7-2.3Q396.55-7.8 393.43-13.03 390.3-18.25 386.9-22.05L386.9-22.05Q386.35-22.55 386-22.55L386-22.55Q385.5-22.55 385.35-21.45L385.35-21.45Q385.1-19.55 384.85-17.3 384.6-15.05 384.45-12.93 384.3-10.8 384.3-9.3L384.3-9.3Q384.3-7.6 384.6-6.38 384.9-5.15 385.5-4L385.5-4Q386.05-3 386.05-2.2L386.05-2.2Q386.05-1.25 384.95-0.38 383.85 0.5 381.85 0.5ZM423.7 0.65L423.7 0.65Q420.25 0.65 417.5-0.9 414.75-2.45 413.15-5.4 411.55-8.35 411.55-12.55L411.55-12.55Q411.55-16.35 412.82-19.88 414.1-23.4 416.45-26.23 418.8-29.05 422.15-30.7 425.5-32.35 429.6-32.35L429.6-32.35Q432.6-32.35 434.6-31.4 436.6-30.45 436.6-28.6L436.6-28.6Q436.6-27.7 436.13-26.83 435.65-25.95 434.9-25.35 434.15-24.75 433.35-24.75L433.35-24.75Q432.85-24.75 432.55-25L432.55-25Q429.95-26.75 426.65-26.75L426.65-26.75Q423.15-26.75 420.75-25.13 418.35-23.5 417.13-20.85 415.9-18.2 415.9-15.1L415.9-15.1Q415.9-10.45 418.53-7.7 421.15-4.95 425.55-4.95L425.55-4.95Q427.45-4.95 429.1-5.5 430.75-6.05 431.8-7.1 432.85-8.15 432.85-9.65L432.85-9.65Q432.85-11.15 431.95-11.95 431.05-12.75 429.6-13.13 428.15-13.5 426.45-13.6L426.45-13.6Q425.25-13.7 424.68-13.9 424.1-14.1 424.1-15.1L424.1-15.1Q424.1-16.3 424.85-17.1 425.6-17.9 426.7-18L426.7-18Q428.2-18.15 430.3-18.23 432.4-18.3 434.68-18.32 436.95-18.35 438.95-18.35L438.95-18.35Q439.6-18.35 439.95-18.13 440.3-17.9 440.3-17.2L440.3-17.2Q440.3-16.35 439.93-15.35 439.55-14.35 438.9-13.65 438.25-12.95 437.4-12.95L437.4-12.95 436.6-12.95Q436.75-12.45 436.88-11.83 437-11.2 437-10.4L437-10.4Q437-8.2 435.95-6.23 434.9-4.25 433.05-2.7 431.2-1.15 428.8-0.25 426.4 0.65 423.7 0.65ZM455.1 0.65L455.1 0.65Q449.95 0.65 446.88-2.38 443.8-5.4 443.8-11.3L443.8-11.3Q443.8-13.95 444.53-16.8 445.25-19.65 446.95-22.45L446.95-22.45Q446-21.6 445.15-21.6L445.15-21.6Q443.7-21.6 443.7-23.9L443.7-23.9Q443.7-25.55 444.4-26.55 445.1-27.55 445.75-28.15L445.75-28.15Q446.85-29.1 448.55-30.08 450.25-31.05 452.55-31.7 454.85-32.35 457.7-32.35L457.7-32.35Q464.4-32.35 467.78-28.58 471.15-24.8 471.15-18.1L471.15-18.1Q471.15-14.15 470-10.75 468.85-7.35 466.73-4.8 464.6-2.25 461.65-0.8 458.7 0.65 455.1 0.65ZM456.85-4.95L456.85-4.95Q459.35-4.95 461.78-6.1 464.2-7.25 465.78-9.78 467.35-12.3 467.35-16.35L467.35-16.35Q467.35-20.15 465.9-22.43 464.45-24.7 462.23-25.73 460-26.75 457.55-26.75L457.55-26.75Q455.7-26.75 454.23-26.28 452.75-25.8 451.6-25.25L451.6-25.25Q450.3-23.25 449.15-20.38 448-17.5 448-14.3L448-14.3Q448-11.1 449.25-9.03 450.5-6.95 452.53-5.95 454.55-4.95 456.85-4.95ZM494.75 0.65L494.75 0.65Q491.75 0.65 489.93-1.23 488.1-3.1 488.1-6.6L488.1-6.6Q488.1-9.1 489.08-11.58 490.05-14.05 491.9-16.05 493.75-18.05 496.35-19.25 498.95-20.45 502.2-20.45L502.2-20.45Q505.2-20.45 507.33-19.43 509.45-18.4 509.45-16.65L509.45-16.65Q509.45-16.2 509.35-15.48 509.25-14.75 509.1-14.3L509.1-14.3Q508.95-13.9 508.68-13.58 508.4-13.25 507.95-13.25L507.95-13.25Q507.75-13.25 507.2-13.4L507.2-13.4Q507-12.35 506.9-11.35 506.8-10.35 506.8-9.35L506.8-9.35Q506.8-7.45 507.38-5.98 507.95-4.5 509.65-4.15L509.65-4.15Q510.1-4.05 510.38-3.85 510.65-3.65 510.65-3L510.65-3Q510.65-2.45 510.38-1.6 510.1-0.75 509.33-0.08 508.55 0.6 507.1 0.6L507.1 0.6Q505.15 0.6 504.1-0.83 503.05-2.25 503.05-4.9L503.05-4.9Q501.7-2.45 499.63-0.9 497.55 0.65 494.75 0.65ZM496.35-4.55L496.35-4.55Q498.35-4.55 499.88-5.8 501.4-7.05 502.25-8.95L502.25-8.95Q502.8-10.15 503.1-11.58 503.4-13 503.5-14.4L503.5-14.4Q502.65-14.8 501.55-15.05 500.45-15.3 499.25-15.3L499.25-15.3Q496.2-15.3 494.23-13.5 492.25-11.7 492.25-9L492.25-9Q492.25-7 493.35-5.78 494.45-4.55 496.35-4.55ZM516.55 0.55L516.55 0.55Q514.75 0.55 514.95-0.65L514.95-0.65Q515.5-2.8 515.88-5.03 516.25-7.25 516.25-9.3L516.25-9.3Q516.25-11.95 515.93-13.18 515.6-14.4 515.05-14.88 514.5-15.35 513.7-15.6L513.7-15.6Q513.35-15.75 513.08-16 512.8-16.25 512.8-16.7L512.8-16.7Q512.8-17.4 513.35-18.25 513.9-19.1 514.93-19.73 515.95-20.35 517.25-20.35L517.25-20.35Q518.95-20.35 519.6-19.18 520.25-18 520.25-16.1L520.25-16.1Q520.25-14.85 520-13.3 519.75-11.75 519.5-10.5L519.5-10.5 519.65-10.45Q520.65-13.1 522.08-15.38 523.5-17.65 525.4-19.05 527.3-20.45 529.8-20.45L529.8-20.45Q532.45-20.45 533.85-18.85 535.25-17.25 535.25-14.85L535.25-14.85Q535.25-13.85 535.02-12.95 534.8-12.05 534.55-11.2L534.55-11.2Q534.3-10.4 534.13-9.55 533.95-8.7 533.95-7.85L533.95-7.85Q533.95-5 536.65-4L536.65-4Q537.35-3.7 537.35-3.1L537.35-3.1Q537.35-2.65 537.05-1.8 536.75-0.95 535.95-0.23 535.15 0.5 533.6 0.5L533.6 0.5Q531.6 0.5 530.5-0.93 529.4-2.35 529.4-4.55L529.4-4.55Q529.4-5.8 529.68-7.08 529.95-8.35 530.25-9.45L530.25-9.45Q530.45-10.3 530.63-11.13 530.8-11.95 530.8-12.6L530.8-12.6Q530.8-14.9 528.4-14.9L528.4-14.9Q526.35-14.9 524.8-13.38 523.25-11.85 522.15-9.55 521.05-7.25 520.35-4.9L520.35-4.9 520.35-3.7Q520.35-1.85 519.33-0.65 518.3 0.55 516.55 0.55ZM546.8 0.65L546.8 0.65Q543.8 0.65 542.07-1.35 540.35-3.35 540.35-6.8L540.35-6.8Q540.35-9.35 541.17-11.8 542-14.25 543.5-16.2 545-18.15 547-19.3 549-20.45 551.35-20.45L551.35-20.45Q552.85-20.45 554.02-20 555.2-19.55 556.1-18.85L556.1-18.85Q556.05-22.25 555.75-24.95 555.45-27.65 554.3-29.95L554.3-29.95Q554.1-30.35 553.98-30.68 553.85-31 553.85-31.3L553.85-31.3Q553.85-32 554.42-32.6 555-33.2 555.85-33.6 556.7-34 557.45-34L557.45-34Q558.8-34 559.48-32.83 560.15-31.65 560.35-29.63 560.55-27.6 560.55-25L560.55-25Q560.55-21.2 560.2-18.15 559.85-15.1 559.55-12.8L559.55-12.8Q559.35-11.3 559.2-10.2 559.05-9.1 559.05-8.4L559.05-8.4Q559.05-4.85 562.1-4.2L562.1-4.2Q562.9-4.05 562.9-3.15L562.9-3.15Q562.9-2.6 562.57-1.75 562.25-0.9 561.4-0.23 560.55 0.45 558.95 0.45L558.95 0.45Q556.8 0.45 556.05-1 555.3-2.45 555.3-5.4L555.3-5.4Q553.9-2.85 551.75-1.1 549.6 0.65 546.8 0.65ZM548.35-4.7L548.35-4.7Q549.75-4.7 551.15-5.6 552.55-6.5 553.65-8.05L553.65-8.05Q554.3-9 554.82-10.23 555.35-11.45 555.8-12.7L555.8-12.7Q553.25-15 550.15-15L550.15-15Q547.45-15 545.85-13.38 544.25-11.75 544.25-9.35L544.25-9.35Q544.25-7.3 545.45-6 546.65-4.7 548.35-4.7ZM587.95 0.65L587.95 0.65Q586.1 0.65 584.55 0.3 583-0.05 582-1L582-1Q581.25-1.7 581-2.58 580.75-3.45 580.75-4.5L580.75-4.5Q580.75-6.2 581.05-7.9L581.05-7.9Q581.5-10.85 581.85-14.25 582.2-17.65 582.2-20.55L582.2-20.55Q582.2-21.45 582.13-22.6 582.05-23.75 581.9-24.75L581.9-24.75Q581.55-24.6 581.23-24.48 580.9-24.35 580.65-24.35L580.65-24.35Q580.2-24.35 580.05-24.8 579.9-25.25 579.9-25.8L579.9-25.8Q579.9-27.25 580.58-28.28 581.25-29.3 582.8-30.1L582.8-30.1Q584.45-31 587.13-31.68 589.8-32.35 592.55-32.35L592.55-32.35Q598.8-32.35 602.38-28.68 605.95-25 605.95-18.25L605.95-18.25Q605.95-14.4 604.77-10.98 603.6-7.55 601.3-4.93 599-2.3 595.65-0.83 592.3 0.65 587.95 0.65ZM589.55-4.95L589.55-4.95Q591.8-4.95 594.05-5.65 596.3-6.35 598.13-7.75 599.95-9.15 601.05-11.33 602.15-13.5 602.15-16.55L602.15-16.55Q602.15-20 600.8-22.25 599.45-24.5 597.2-25.6 594.95-26.7 592.2-26.7L592.2-26.7Q590.7-26.7 589.23-26.45 587.75-26.2 586.9-25.95L586.9-25.95Q586.85-23.65 586.63-21.48 586.4-19.3 586.1-17.25L586.1-17.25Q585.8-15.1 585.63-13.05 585.45-11 585.45-9L585.45-9Q585.45-6.5 586.48-5.73 587.5-4.95 589.55-4.95ZM617.75 0.65L617.75 0.65Q614.3 0.65 612.23-1.23 610.15-3.1 610.15-6.75L610.15-6.75Q610.15-8.45 610.63-10.05 611.1-11.65 611.9-13.05L611.9-13.05Q611.1-12.55 610.7-12.55L610.7-12.55Q610.1-12.55 609.88-13.23 609.65-13.9 609.65-14.55L609.65-14.55Q609.65-15.7 610.13-16.38 610.6-17.05 611.05-17.4L611.05-17.4Q612.1-18.3 614.35-19.38 616.6-20.45 619.75-20.45L619.75-20.45Q624.05-20.45 626.43-18.05 628.8-15.65 628.8-11.35L628.8-11.35Q628.8-8 627.4-5.28 626-2.55 623.53-0.95 621.05 0.65 617.75 0.65ZM619.3-4.45L619.3-4.45Q621.8-4.45 623.53-6.03 625.25-7.6 625.25-10.2L625.25-10.2Q625.25-12.9 623.5-14.05 621.75-15.2 619.45-15.2L619.45-15.2Q618.4-15.2 617.55-15 616.7-14.8 615.95-14.5L615.95-14.5Q615.25-13.5 614.7-12.25 614.15-11 614.15-9.5L614.15-9.5Q614.15-7 615.65-5.73 617.15-4.45 619.3-4.45ZM635.45 0.55L635.45 0.55Q633.65 0.55 633.85-0.65L633.85-0.65Q634.4-2.8 634.77-5.03 635.15-7.25 635.15-9.3L635.15-9.3Q635.15-11.95 634.83-13.18 634.5-14.4 633.95-14.88 633.4-15.35 632.6-15.6L632.6-15.6Q632.25-15.75 631.98-16 631.7-16.25 631.7-16.7L631.7-16.7Q631.7-17.4 632.25-18.25 632.8-19.1 633.83-19.73 634.85-20.35 636.15-20.35L636.15-20.35Q637.85-20.35 638.5-19.18 639.15-18 639.15-16.1L639.15-16.1Q639.15-14.85 638.9-13.3 638.65-11.75 638.4-10.5L638.4-10.5 638.55-10.45Q639.55-13.1 640.98-15.38 642.4-17.65 644.3-19.05 646.2-20.45 648.7-20.45L648.7-20.45Q651.35-20.45 652.75-18.85 654.15-17.25 654.15-14.85L654.15-14.85Q654.15-13.85 653.92-12.95 653.7-12.05 653.45-11.2L653.45-11.2Q653.2-10.4 653.02-9.55 652.85-8.7 652.85-7.85L652.85-7.85Q652.85-5 655.55-4L655.55-4Q656.25-3.7 656.25-3.1L656.25-3.1Q656.25-2.65 655.95-1.8 655.65-0.95 654.85-0.23 654.05 0.5 652.5 0.5L652.5 0.5Q650.5 0.5 649.4-0.93 648.3-2.35 648.3-4.55L648.3-4.55Q648.3-5.8 648.58-7.08 648.85-8.35 649.15-9.45L649.15-9.45Q649.35-10.3 649.52-11.13 649.7-11.95 649.7-12.6L649.7-12.6Q649.7-14.9 647.3-14.9L647.3-14.9Q645.25-14.9 643.7-13.38 642.15-11.85 641.05-9.55 639.95-7.25 639.25-4.9L639.25-4.9 639.25-3.7Q639.25-1.85 638.23-0.65 637.2 0.55 635.45 0.55ZM667.35 0.65L667.35 0.65Q663.9 0.65 661.82-1.23 659.75-3.1 659.75-6.75L659.75-6.75Q659.75-8.45 660.22-10.05 660.7-11.65 661.5-13.05L661.5-13.05Q660.7-12.55 660.3-12.55L660.3-12.55Q659.7-12.55 659.47-13.23 659.25-13.9 659.25-14.55L659.25-14.55Q659.25-15.7 659.72-16.38 660.2-17.05 660.65-17.4L660.65-17.4Q661.7-18.3 663.95-19.38 666.2-20.45 669.35-20.45L669.35-20.45Q673.65-20.45 676.02-18.05 678.4-15.65 678.4-11.35L678.4-11.35Q678.4-8 677-5.28 675.6-2.55 673.13-0.95 670.65 0.65 667.35 0.65ZM668.9-4.45L668.9-4.45Q671.4-4.45 673.13-6.03 674.85-7.6 674.85-10.2L674.85-10.2Q674.85-12.9 673.1-14.05 671.35-15.2 669.05-15.2L669.05-15.2Q668-15.2 667.15-15 666.3-14.8 665.55-14.5L665.55-14.5Q664.85-13.5 664.3-12.25 663.75-11 663.75-9.5L663.75-9.5Q663.75-7 665.25-5.73 666.75-4.45 668.9-4.45ZM685.25 0.55L685.25 0.55Q684.45 0.55 683.97 0.28 683.5 0 683.65-0.65L683.65-0.65Q684.2-2.8 684.57-5.03 684.95-7.25 684.95-9.3L684.95-9.3Q684.95-11.95 684.62-13.18 684.3-14.4 683.75-14.88 683.2-15.35 682.4-15.6L682.4-15.6Q682.05-15.75 681.77-16 681.5-16.25 681.5-16.7L681.5-16.7Q681.5-17.4 682.05-18.25 682.6-19.1 683.6-19.73 684.6-20.35 685.9-20.35L685.9-20.35Q687.6-20.35 688.27-19.18 688.95-18 688.95-16.1L688.95-16.1Q689.85-18.1 691.17-19.28 692.5-20.45 694.5-20.45L694.5-20.45Q695.85-20.45 696.75-19.85 697.65-19.25 697.65-17.9L697.65-17.9Q697.65-16.55 696.77-15.38 695.9-14.2 695-14.2L695-14.2Q694.85-14.2 694.65-14.25 694.45-14.3 694.3-14.5L694.3-14.5Q693.65-15.3 692.7-15.3L692.7-15.3Q691.25-15.3 690.15-13.4 689.05-11.5 688.95-8.15L688.95-8.15Q689-6.9 689.02-5.6 689.05-4.3 689.05-3.7L689.05-3.7Q689.05-1.85 688.02-0.65 687 0.55 685.25 0.55ZM705.35 0.65L705.35 0.65Q703.5 0.65 701.9 0.1 700.3-0.45 699.3-1.45 698.3-2.45 698.3-3.85L698.3-3.85Q698.3-4.6 698.67-5.28 699.05-5.95 699.9-5.95L699.9-5.95Q700.35-5.95 700.85-5.7L700.85-5.7Q701.75-5.2 703.15-4.78 704.55-4.35 706.1-4.35L706.1-4.35Q707.85-4.35 709.2-4.85 710.55-5.35 710.55-6.25L710.55-6.25Q710.55-6.95 709.52-7.25 708.5-7.55 706.1-7.9L706.1-7.9Q704.45-8.2 702.9-8.6 701.35-9 700.35-9.98 699.35-10.95 699.35-12.85L699.35-12.85Q699.35-14.7 700.37-16.43 701.4-18.15 703.45-19.3 705.5-20.45 708.45-20.45L708.45-20.45Q710-20.45 711.45-20.1 712.9-19.75 713.85-19.05 714.8-18.35 714.8-17.3L714.8-17.3Q714.8-16.4 714.17-15.65 713.55-14.9 712.72-14.43 711.9-13.95 711.35-13.95L711.35-13.95Q710.95-13.95 710.4-14.5L710.4-14.5Q709.55-15.2 708.52-15.48 707.5-15.75 706.5-15.75L706.5-15.75Q705-15.75 704.07-15.3 703.15-14.85 703.15-14.15L703.15-14.15Q703.15-13.5 703.92-13.1 704.7-12.7 705.85-12.53 707-12.35 708.05-12.2L708.05-12.2Q710.95-11.8 712.65-10.83 714.35-9.85 714.35-7.4L714.35-7.4Q714.35-5.5 713.27-3.63 712.2-1.75 710.17-0.55 708.15 0.65 705.35 0.65Z" opacity="1" transform="matrix(1,0,0,1,0,0)" fill="black" class="slogan-text-1" id="SvgjsPath2336" stroke-width="7" stroke="black" stroke-linejoin="round"></path></svg></g></svg></g></svg></g></svg></g></svg></g></svg></g></svg></g></mask><g transform="matrix(1,0,0,1,39.55199999999999,70.48476367711324)"><svg viewBox="0 0 316.416 106.23047264577352" height="106.23047264577352" width="316.416"><g><svg viewBox="0 0 316.416 106.23047264577352" height="106.23047264577352" width="316.416"><g><svg viewBox="0 0 316.416 106.23047264577352" height="106.23047264577352" width="316.416"><g><svg viewBox="0 0 316.416 106.23047264577352" height="106.23047264577352" width="316.416"><g id="textblocktransform"><svg viewBox="0 0 316.416 106.23047264577352" height="106.23047264577352" width="316.416" id="textblock"><g><svg viewBox="0 0 316.416 73.62316442605996" height="73.62316442605996" width="316.416"><g transform="matrix(1,0,0,1,0,0)"><svg width="316.416" viewBox="-2.95 -41.5 194.39 46" height="73.62316442605996" data-palette-color="#3d9970"><path d="M13.55-10.65Q13.55-6.05 15.13-3.6 16.7-1.15 20.8-1.15 24.9-1.15 27.1-3.7 29.3-6.25 29.3-11.45L29.3-11.45 29.3-34.05 26.05-34.05 26.05-35 33.35-35 33.35-34.05 30.6-34.05 30.6-11.8Q30.6-5.6 27.85-2.55 25.1 0.5 18.13 0.5 11.15 0.5 7.48-2.4 3.8-5.3 3.8-12.35L3.8-12.35 3.8-34.05 1.05-34.05 1.05-35 16.8-35 16.8-34.05 13.55-34.05 13.55-10.65ZM36.9-7.15L36.9-7.15 36.9-22.9 34.15-22.9 34.15-23.8 36.9-23.8 36.9-30.25 46.2-32.55 46.2-23.8 52.7-23.8 52.7-22.9 46.2-22.9 46.2-6.05Q46.2-3.7 46.67-2.6 47.15-1.5 48.65-1.5 50.15-1.5 51.27-3 52.4-4.5 52.75-7.1L52.75-7.1 53.6-7Q53.2-3.55 51.4-1.53 49.6 0.5 45.45 0.5 41.3 0.5 39.1-1.15 36.9-2.8 36.9-7.15ZM84.34 0L70.45 0 70.45-0.9 72.75-0.9 67.09-12.5 66.15-12.25 66.15-0.9 68.45-0.9 68.45 0 54.1 0 54.1-0.9 56.85-0.9 56.85-36.6 53.9-36.6 53.9-37.5 66.15-37.5 66.15-13.25 66.95-13.55 78.2-22.9 73.5-22.9 73.5-23.8 83.34-23.8 83.34-22.9 79.84-22.9 73.9-17.85 82.55-0.9 84.34-0.9 84.34 0ZM96.09-11.75L96.09-11.75 97.54-11.75 97.54-15.6Q97.54-20.35 97.02-21.98 96.49-23.6 94.99-23.6L94.99-23.6Q94.09-23.6 93.37-23.13 92.64-22.65 92.64-21.83 92.64-21 92.94-20.15L92.94-20.15 94.19-20.15Q94.59-19.1 94.59-17.63 94.59-16.15 93.34-15.08 92.09-14 90.19-14L90.19-14Q85.89-14 85.89-18.15L85.89-18.15Q85.89-24.3 96.34-24.3L96.34-24.3Q102.29-24.3 104.57-22.28 106.84-20.25 106.84-14.85L106.84-14.85 106.84-4.7Q106.84-2.1 108.29-2.1L108.29-2.1Q109.99-2.1 110.29-7.25L110.29-7.25 111.04-7.2Q110.84-2.8 109.39-1.15 107.94 0.5 104.64 0.5L104.64 0.5Q98.64 0.5 97.74-3.2L97.74-3.2Q97.09-1.3 95.79-0.4 94.49 0.5 91.99 0.5L91.99 0.5Q84.59 0.5 84.59-5.55L84.59-5.55Q84.59-9.1 87.42-10.43 90.24-11.75 96.09-11.75ZM94.09-5.6Q94.09-3 94.37-2.25 94.64-1.5 95.42-1.5 96.19-1.5 96.87-2.78 97.54-4.05 97.54-6.3L97.54-6.3 97.54-10.95 97.19-10.95Q94.09-10.95 94.09-6.4L94.09-6.4 94.09-5.6ZM128.24-22.4L128.24-22.4Q126.39-22.4 124.99-20 123.59-17.6 123.59-14.3L123.59-14.3 123.59-0.9 127.14-0.9 127.14 0 111.54 0 111.54-0.9 114.29-0.9 114.29-22.9 111.54-22.9 111.54-23.8 123.59-23.8 123.59-19Q124.24-21.55 126.09-22.93 127.94-24.3 130.29-24.3 132.64-24.3 134.12-22.98 135.59-21.65 135.59-19.23 135.59-16.8 134.49-15.5 133.39-14.2 131.12-14.2 128.84-14.2 127.77-15.7 126.69-17.2 127.49-19.85L127.49-19.85 129.29-19.85Q130.54-22.4 128.24-22.4ZM137.44 0.5L136.84 0.5 136.84-8.45 137.44-8.45Q138.74-4.1 140.94-2.35 143.14-0.6 146.44-0.6L146.44-0.6Q151.54-0.6 151.54-3.85L151.54-3.85Q151.54-5.25 150.29-5.95L150.29-5.95Q148.34-7.05 145.29-7.65L145.29-7.65Q141.89-8.55 139.59-10.05L139.59-10.05Q136.84-11.85 136.84-15.75 136.84-19.65 139.24-21.98 141.64-24.3 145.64-24.3L145.64-24.3Q148.09-24.3 150.69-23.15L150.69-23.15Q151.64-22.75 152.14-22.75 152.64-22.75 152.99-23.1 153.34-23.45 153.84-24.4L153.84-24.4 154.39-24.4 154.39-16.75 153.79-16.75Q151.24-23.25 145.89-23.25L145.89-23.25Q143.54-23.25 142.39-22.43 141.24-21.6 141.24-20.35L141.24-20.35Q141.24-19.6 141.59-19.18 141.94-18.75 142.14-18.55 142.34-18.35 142.79-18.13 143.24-17.9 143.54-17.78 143.84-17.65 144.46-17.45 145.09-17.25 145.39-17.2L145.39-17.2Q148.79-16.35 150.29-15.73 151.79-15.1 153.14-14.2L153.14-14.2Q155.89-12.3 155.89-8.08 155.89-3.85 153.39-1.68 150.89 0.5 146.54 0.5L146.54 0.5Q143.44 0.5 140.54-0.95L140.54-0.95Q139.94-1.35 139.59-1.35L139.59-1.35Q138.49-1.35 137.44 0.5L137.44 0.5ZM157.39-36.6L157.39-37.5 169.44-37.5 169.44-19.2Q170.24-21.5 171.89-22.9 173.54-24.3 176.89-24.3L176.89-24.3Q184.64-24.3 184.64-15.95L184.64-15.95 184.64-0.9 187.44-0.9 187.44 0 173.29 0 173.29-0.9 175.34-0.9 175.34-17.15Q175.34-20.15 174.94-21.03 174.54-21.9 173.49-21.9L173.49-21.9Q171.89-21.9 170.66-19.8 169.44-17.7 169.44-14.7L169.44-14.7 169.44-0.9 171.59-0.9 171.59 0 157.39 0 157.39-0.9 160.14-0.9 160.14-36.6 157.39-36.6Z" opacity="1" transform="matrix(1,0,0,1,0,0)" fill="#3d9970" class="wordmark-text-0" data-fill-palette-color="primary" id="text-0"></path></svg></g></svg></g><g transform="matrix(1,0,0,1,3.5,88.30016803209925)"><svg viewBox="0 0 309.416 17.930304613674263" height="17.930304613674263" width="309.416"><g transform="matrix(1,0,0,1,0,0)"><svg width="309.416" viewBox="-1.7999999999999998 -38 720.5999999999999 42.7" height="17.930304613674263" data-palette-color="#60a284"><path d="M3.85 0.5L3.85 0.5Q2.9 0.5 2.55-0.05 2.2-0.6 2.2-1.25L2.2-1.25Q2.2-4.35 2.83-8.35 3.45-12.35 4.35-16.3L4.35-16.3Q5.15-19.65 6.13-22.55 7.1-25.45 7.85-27.3L7.85-27.3Q8.95-29.9 10.38-31.28 11.8-32.65 13.7-32.65L13.7-32.65Q15.1-32.65 16.2-31.73 17.3-30.8 17.5-28.4L17.5-28.4Q17.8-25.5 18.2-22.55 18.6-19.6 19.1-17.18 19.6-14.75 20.15-13.45L20.15-13.45Q20.6-12.3 21.45-12.3L21.45-12.3Q22.4-12.3 23.1-13.5L23.1-13.5Q23.75-14.6 24.5-16.5 25.25-18.4 25.98-20.53 26.7-22.65 27.25-24.4L27.25-24.4Q27.9-26.3 28.73-28.23 29.55-30.15 30.85-31.43 32.15-32.7 34.1-32.7L34.1-32.7Q35.9-32.7 36.68-31.48 37.45-30.25 37.45-27.6L37.45-27.6Q37.45-25.55 37.3-23.3L37.3-23.3Q37.25-22 37.18-20.63 37.1-19.25 37.1-17.8L37.1-17.8Q37.1-15.55 37.33-13.05 37.55-10.55 38.23-8.35 38.9-6.15 40.25-4.65L40.25-4.65Q40.65-4.3 40.98-3.85 41.3-3.4 41.3-2.85L41.3-2.85Q41.3-1.6 39.98-0.58 38.65 0.45 36.95 0.45L36.95 0.45Q35.4 0.45 34.65-0.55 33.9-1.55 33.45-3.25L33.45-3.25Q32.95-5.35 32.75-7.75 32.55-10.15 32.55-12.4L32.55-12.4Q32.55-16 32.83-19.03 33.1-22.05 33.1-23.5L33.1-23.5Q33.1-24.3 32.95-24.68 32.8-25.05 32.2-25.05L32.2-25.05Q31.5-25.05 31.03-24.43 30.55-23.8 30.25-22.7L30.25-22.7Q29.6-20.6 28.8-18.2 28-15.8 27.13-13.5 26.25-11.2 25.25-9.4L25.25-9.4Q24.1-7.3 22.78-6.58 21.45-5.85 20.1-5.85L20.1-5.85Q18-5.85 16.93-7.18 15.85-8.5 15.35-10.1L15.35-10.1Q14.7-12.25 14.15-15.73 13.6-19.2 13.35-23.55L13.35-23.55Q13.25-25.4 12.15-25.4L12.15-25.4Q10.95-25.4 10.25-23.6L10.25-23.6Q9.65-21.8 9.1-19.38 8.55-16.95 8.22-14.33 7.9-11.7 7.9-9.15L7.9-9.15Q7.9-7 8.08-5.4 8.25-3.8 8.25-2.4L8.25-2.4Q8.25-1.4 7.48-0.75 6.7-0.1 5.65 0.2 4.6 0.5 3.85 0.5ZM52.5 0.65L52.5 0.65Q48.7 0.65 46.58-1.53 44.45-3.7 44.45-7.6L44.45-7.6Q44.45-11.15 46-14.05 47.55-16.95 50.18-18.68 52.8-20.4 55.95-20.4L55.95-20.4Q58.95-20.4 60.75-18.93 62.55-17.45 62.55-15L62.55-15Q62.55-13.05 61.35-11.4 60.15-9.75 58.15-8.78 56.15-7.8 53.7-7.8L53.7-7.8Q50.7-7.8 48.8-9.15L48.8-9.15Q48.85-6.85 50.38-5.45 51.9-4.05 54.3-4.05L54.3-4.05Q55.75-4.05 57.28-4.58 58.8-5.1 59.9-6L59.9-6Q60.6-6.6 61.2-6.6L61.2-6.6Q61.7-6.6 62.03-6.28 62.35-5.95 62.35-5.45L62.35-5.45Q62.35-4.35 60.45-2.55L60.45-2.55Q57.1 0.65 52.5 0.65ZM53.25-11.1L53.25-11.1Q55.05-11.1 56.25-11.85 57.45-12.6 57.45-13.75L57.45-13.75Q57.45-14.7 56.65-15.23 55.85-15.75 54.45-15.75L54.45-15.75Q52.6-15.75 51.23-14.78 49.85-13.8 49.25-12.05L49.25-12.05Q49.95-11.6 51.05-11.35 52.15-11.1 53.25-11.1ZM72.65 0.65L72.65 0.65Q69.65 0.65 67.92-1.35 66.2-3.35 66.2-6.8L66.2-6.8Q66.2-9.35 67.03-11.8 67.85-14.25 69.35-16.2 70.85-18.15 72.85-19.3 74.85-20.45 77.2-20.45L77.2-20.45Q78.7-20.45 79.88-20 81.05-19.55 81.95-18.85L81.95-18.85Q81.9-22.25 81.6-24.95 81.3-27.65 80.15-29.95L80.15-29.95Q79.95-30.35 79.83-30.68 79.7-31 79.7-31.3L79.7-31.3Q79.7-32 80.28-32.6 80.85-33.2 81.7-33.6 82.55-34 83.3-34L83.3-34Q84.65-34 85.33-32.83 86-31.65 86.2-29.63 86.4-27.6 86.4-25L86.4-25Q86.4-21.2 86.05-18.15 85.7-15.1 85.4-12.8L85.4-12.8Q85.2-11.3 85.05-10.2 84.9-9.1 84.9-8.4L84.9-8.4Q84.9-4.85 87.95-4.2L87.95-4.2Q88.75-4.05 88.75-3.15L88.75-3.15Q88.75-2.6 88.42-1.75 88.1-0.9 87.25-0.23 86.4 0.45 84.8 0.45L84.8 0.45Q82.65 0.45 81.9-1 81.15-2.45 81.15-5.4L81.15-5.4Q79.75-2.85 77.6-1.1 75.45 0.65 72.65 0.65ZM74.2-4.7L74.2-4.7Q75.6-4.7 77-5.6 78.4-6.5 79.5-8.05L79.5-8.05Q80.15-9 80.67-10.23 81.2-11.45 81.65-12.7L81.65-12.7Q79.1-15 76-15L76-15Q73.3-15 71.7-13.38 70.1-11.75 70.1-9.35L70.1-9.35Q70.1-7.3 71.3-6 72.5-4.7 74.2-4.7ZM96.2-24.85L96.2-24.85Q94.8-24.9 93.95-25.7 93.1-26.5 93.1-27.95L93.1-27.95Q93.15-29.5 94.15-30.48 95.15-31.45 96.7-31.4L96.7-31.4Q98.15-31.35 98.97-30.55 99.8-29.75 99.75-28.3L99.75-28.3Q99.7-26.8 98.75-25.83 97.8-24.85 96.2-24.85ZM96.25 0.5L96.25 0.5Q94.75 0.5 93.9-0.33 93.05-1.15 93.05-3.15L93.05-3.15Q93.05-4.3 93.27-5.4 93.5-6.5 93.8-7.55L93.8-7.55Q94.15-8.65 94.38-9.8 94.6-10.95 94.6-12.25L94.6-12.25Q94.6-13.15 94.35-13.98 94.1-14.8 93.25-15.2L93.25-15.2Q92.6-15.55 92.13-15.93 91.65-16.3 91.65-16.9L91.65-16.9Q91.65-17.6 92.3-18.4 92.95-19.2 94.02-19.78 95.1-20.35 96.25-20.35L96.25-20.35Q97.5-20.35 98.07-19.7 98.65-19.05 98.85-18.05 99.05-17.05 99.05-16L99.05-16Q99.05-14.4 98.8-12.88 98.55-11.35 98.3-10.05L98.3-10.05Q98.1-9.1 98-8.3 97.9-7.5 97.9-6.8L97.9-6.8Q97.9-5.55 98.5-4.93 99.1-4.3 100.2-3.75L100.2-3.75Q100.65-3.5 100.65-3L100.65-3Q100.65-2.6 100.25-1.75 99.85-0.9 98.88-0.2 97.9 0.5 96.25 0.5ZM110.6 0.65L110.6 0.65Q107.6 0.65 105.78-1.23 103.95-3.1 103.95-6.6L103.95-6.6Q103.95-9.1 104.92-11.58 105.9-14.05 107.75-16.05 109.6-18.05 112.2-19.25 114.8-20.45 118.05-20.45L118.05-20.45Q121.05-20.45 123.17-19.43 125.3-18.4 125.3-16.65L125.3-16.65Q125.3-16.2 125.2-15.48 125.1-14.75 124.95-14.3L124.95-14.3Q124.8-13.9 124.53-13.58 124.25-13.25 123.8-13.25L123.8-13.25Q123.6-13.25 123.05-13.4L123.05-13.4Q122.85-12.35 122.75-11.35 122.65-10.35 122.65-9.35L122.65-9.35Q122.65-7.45 123.22-5.98 123.8-4.5 125.5-4.15L125.5-4.15Q125.95-4.05 126.22-3.85 126.5-3.65 126.5-3L126.5-3Q126.5-2.45 126.22-1.6 125.95-0.75 125.17-0.08 124.4 0.6 122.95 0.6L122.95 0.6Q121 0.6 119.95-0.83 118.9-2.25 118.9-4.9L118.9-4.9Q117.55-2.45 115.47-0.9 113.4 0.65 110.6 0.65ZM112.2-4.55L112.2-4.55Q114.2-4.55 115.72-5.8 117.25-7.05 118.1-8.95L118.1-8.95Q118.65-10.15 118.95-11.58 119.25-13 119.35-14.4L119.35-14.4Q118.5-14.8 117.4-15.05 116.3-15.3 115.1-15.3L115.1-15.3Q112.05-15.3 110.08-13.5 108.1-11.7 108.1-9L108.1-9Q108.1-7 109.2-5.78 110.3-4.55 112.2-4.55ZM136.9 0.65L136.9 0.65Q133.85 0.65 132.53-1.38 131.2-3.4 131.2-6.6L131.2-6.6Q131.2-7.75 131.32-8.85 131.45-9.95 131.6-11.05L131.6-11.05Q131.75-12.15 131.9-13.2 132.05-14.25 132.15-15.2L132.15-15.2Q131.1-14.9 130.05-14.9L130.05-14.9Q128.95-14.9 128.95-15.8L128.95-15.8Q128.95-16.75 129.8-18.13 130.65-19.5 131.93-20.85 133.2-22.2 134.47-23.13 135.75-24.05 136.65-24.05L136.65-24.05Q137.75-24.05 137.75-22.15L137.75-22.15Q137.75-21.65 137.68-21.13 137.6-20.6 137.5-20.05L137.5-20.05Q138.45-20.25 139.43-20.4 140.4-20.55 141.3-20.55L141.3-20.55Q142.45-20.55 143.07-20.15 143.7-19.75 143.7-18.6L143.7-18.6Q143.7-17.4 143.13-16.2 142.55-15 141.85-15L141.85-15Q141.7-15 141.35-15.05 141-15.1 140.5-15.2L140.5-15.2Q139.85-15.35 138.85-15.5 137.85-15.65 136.45-15.65L136.45-15.65Q136.1-14.1 135.82-12.48 135.55-10.85 135.55-9.55L135.55-9.55Q135.55-6.65 137-5.6 138.45-4.55 141.2-4.55L141.2-4.55Q142.05-4.55 142.4-4.28 142.75-4 142.75-3.3L142.75-3.3Q142.75-1.65 141.05-0.5 139.35 0.65 136.9 0.65ZM154.25 0.65L154.25 0.65Q150.8 0.65 148.72-1.23 146.65-3.1 146.65-6.75L146.65-6.75Q146.65-8.45 147.13-10.05 147.6-11.65 148.4-13.05L148.4-13.05Q147.6-12.55 147.2-12.55L147.2-12.55Q146.6-12.55 146.38-13.23 146.15-13.9 146.15-14.55L146.15-14.55Q146.15-15.7 146.63-16.38 147.1-17.05 147.55-17.4L147.55-17.4Q148.6-18.3 150.85-19.38 153.1-20.45 156.25-20.45L156.25-20.45Q160.55-20.45 162.92-18.05 165.3-15.65 165.3-11.35L165.3-11.35Q165.3-8 163.9-5.28 162.5-2.55 160.02-0.95 157.55 0.65 154.25 0.65ZM155.8-4.45L155.8-4.45Q158.3-4.45 160.02-6.03 161.75-7.6 161.75-10.2L161.75-10.2Q161.75-12.9 160-14.05 158.25-15.2 155.95-15.2L155.95-15.2Q154.9-15.2 154.05-15 153.2-14.8 152.45-14.5L152.45-14.5Q151.75-13.5 151.2-12.25 150.65-11 150.65-9.5L150.65-9.5Q150.65-7 152.15-5.73 153.65-4.45 155.8-4.45ZM172.15 0.55L172.15 0.55Q171.35 0.55 170.88 0.28 170.4 0 170.55-0.65L170.55-0.65Q171.1-2.8 171.47-5.03 171.85-7.25 171.85-9.3L171.85-9.3Q171.85-11.95 171.53-13.18 171.2-14.4 170.65-14.88 170.1-15.35 169.3-15.6L169.3-15.6Q168.95-15.75 168.68-16 168.4-16.25 168.4-16.7L168.4-16.7Q168.4-17.4 168.95-18.25 169.5-19.1 170.5-19.73 171.5-20.35 172.8-20.35L172.8-20.35Q174.5-20.35 175.18-19.18 175.85-18 175.85-16.1L175.85-16.1Q176.75-18.1 178.07-19.28 179.4-20.45 181.4-20.45L181.4-20.45Q182.75-20.45 183.65-19.85 184.55-19.25 184.55-17.9L184.55-17.9Q184.55-16.55 183.68-15.38 182.8-14.2 181.9-14.2L181.9-14.2Q181.75-14.2 181.55-14.25 181.35-14.3 181.2-14.5L181.2-14.5Q180.55-15.3 179.6-15.3L179.6-15.3Q178.15-15.3 177.05-13.4 175.95-11.5 175.85-8.15L175.85-8.15Q175.9-6.9 175.93-5.6 175.95-4.3 175.95-3.7L175.95-3.7Q175.95-1.85 174.93-0.65 173.9 0.55 172.15 0.55ZM208.25 0.65L208.25 0.65Q206.4 0.65 205.07 0 203.75-0.65 202.75-1.65L202.75-1.65Q202.25-0.8 201.57-0.13 200.9 0.55 200.05 0.55L200.05 0.55Q199.5 0.55 199 0.23 198.5-0.1 198.6-0.65L198.6-0.65Q199.35-4.65 199.88-8.75 200.4-12.85 200.4-17.1L200.4-17.1Q200.4-20.65 200.15-23.75 199.9-26.85 198.6-29.45L198.6-29.45Q198.35-29.95 198.18-30.4 198-30.85 198-31.25L198-31.25Q198-32.2 199.1-33.1 200.2-34 201.45-34L201.45-34Q203.25-34 203.9-31.8 204.55-29.6 204.55-25.3L204.55-25.3Q204.55-21.65 204.22-18.63 203.9-15.6 203.5-13.45L203.5-13.45Q204.9-16.4 207.32-18.43 209.75-20.45 212.8-20.45L212.8-20.45Q215.85-20.45 217.57-18.43 219.3-16.4 219.3-12.95L219.3-12.95Q219.3-10.4 218.5-7.98 217.7-5.55 216.25-3.6 214.8-1.65 212.78-0.5 210.75 0.65 208.25 0.65ZM209.4-4.75L209.4-4.75Q212.25-4.75 213.8-6.55 215.35-8.35 215.35-10.7L215.35-10.7Q215.35-12.75 214.22-13.88 213.1-15 211.25-15L211.25-15Q209.4-15 207.95-13.88 206.5-12.75 205.5-10.93 204.5-9.1 203.95-7L203.95-7Q205.1-5.9 206.53-5.33 207.95-4.75 209.4-4.75ZM231 0.65L231 0.65Q227.2 0.65 225.07-1.53 222.95-3.7 222.95-7.6L222.95-7.6Q222.95-11.15 224.5-14.05 226.05-16.95 228.68-18.68 231.3-20.4 234.45-20.4L234.45-20.4Q237.45-20.4 239.25-18.93 241.05-17.45 241.05-15L241.05-15Q241.05-13.05 239.85-11.4 238.65-9.75 236.65-8.78 234.65-7.8 232.2-7.8L232.2-7.8Q229.2-7.8 227.3-9.15L227.3-9.15Q227.35-6.85 228.88-5.45 230.4-4.05 232.8-4.05L232.8-4.05Q234.25-4.05 235.78-4.58 237.3-5.1 238.4-6L238.4-6Q239.1-6.6 239.7-6.6L239.7-6.6Q240.2-6.6 240.53-6.28 240.85-5.95 240.85-5.45L240.85-5.45Q240.85-4.35 238.95-2.55L238.95-2.55Q235.6 0.65 231 0.65ZM231.75-11.1L231.75-11.1Q233.55-11.1 234.75-11.85 235.95-12.6 235.95-13.75L235.95-13.75Q235.95-14.7 235.15-15.23 234.35-15.75 232.95-15.75L232.95-15.75Q231.1-15.75 229.72-14.78 228.35-13.8 227.75-12.05L227.75-12.05Q228.45-11.6 229.55-11.35 230.65-11.1 231.75-11.1ZM252.2 0.65L252.2 0.65Q249.15 0.65 247.82-1.38 246.5-3.4 246.5-6.6L246.5-6.6Q246.5-7.75 246.63-8.85 246.75-9.95 246.9-11.05L246.9-11.05Q247.05-12.15 247.2-13.2 247.35-14.25 247.45-15.2L247.45-15.2Q246.4-14.9 245.35-14.9L245.35-14.9Q244.25-14.9 244.25-15.8L244.25-15.8Q244.25-16.75 245.1-18.13 245.95-19.5 247.22-20.85 248.5-22.2 249.78-23.13 251.05-24.05 251.95-24.05L251.95-24.05Q253.05-24.05 253.05-22.15L253.05-22.15Q253.05-21.65 252.97-21.13 252.9-20.6 252.8-20.05L252.8-20.05Q253.75-20.25 254.72-20.4 255.7-20.55 256.6-20.55L256.6-20.55Q257.75-20.55 258.38-20.15 259-19.75 259-18.6L259-18.6Q259-17.4 258.43-16.2 257.85-15 257.15-15L257.15-15Q257-15 256.65-15.05 256.3-15.1 255.8-15.2L255.8-15.2Q255.15-15.35 254.15-15.5 253.15-15.65 251.75-15.65L251.75-15.65Q251.4-14.1 251.13-12.48 250.85-10.85 250.85-9.55L250.85-9.55Q250.85-6.65 252.3-5.6 253.75-4.55 256.5-4.55L256.5-4.55Q257.35-4.55 257.7-4.28 258.05-4 258.05-3.3L258.05-3.3Q258.05-1.65 256.35-0.5 254.65 0.65 252.2 0.65ZM268.5 0.7L268.5 0.7Q267.1 0.7 266.13-0.13 265.15-0.95 265-3.2L265-3.2Q264.9-4.9 264.57-7 264.25-9.1 263.8-10.95 263.35-12.8 262.75-13.75L262.75-13.75Q262.4-14.3 261.98-14.58 261.55-14.85 260.7-14.95L260.7-14.95Q259.8-15 259.8-16.25L259.8-16.25Q259.8-18.3 260.9-19.28 262-20.25 263.4-20.25L263.4-20.25Q264.9-20.25 265.85-19.28 266.8-18.3 267.32-16.68 267.85-15.05 268.07-13.05 268.3-11.05 268.3-9L268.3-9Q268.3-8.25 268.27-7.53 268.25-6.8 268.25-6.1L268.25-6.1Q268.25-5.6 268.45-5.28 268.65-4.95 269.45-4.95L269.45-4.95Q270.55-4.95 272.05-5.53 273.55-6.1 274.68-7.45 275.8-8.8 275.8-11.05L275.8-11.05Q275.8-12.2 275.45-12.98 275.1-13.75 274.5-14.45L274.5-14.45Q274.3-14.7 274.15-14.95 274-15.2 274-15.55L274-15.55Q274-16.5 274.77-17.07 275.55-17.65 276.52-17.93 277.5-18.2 278.15-18.2L278.15-18.2Q278.8-18.2 279.18-17.88 279.55-17.55 279.75-16.6L279.75-16.6Q279.95-15.95 280.05-15.18 280.15-14.4 280.15-13.4L280.15-13.4Q280.15-11.85 280.02-10.9 279.9-9.95 279.75-9.2L279.75-9.2Q279.6-8.55 279.52-7.93 279.45-7.3 279.45-6.45L279.45-6.45Q279.45-5.55 279.8-5.25 280.15-4.95 280.9-4.95L280.9-4.95Q283.75-4.95 285.55-6.93 287.35-8.9 287.35-11.75L287.35-11.75Q287.35-12.75 287.05-13.63 286.75-14.5 286-15.3L286-15.3Q285.6-15.8 285.35-16.13 285.1-16.45 285.1-16.95L285.1-16.95Q285.1-17.85 285.93-18.6 286.75-19.35 287.88-19.83 289-20.3 289.9-20.3L289.9-20.3Q291.25-20.3 291.65-19.05 292.05-17.8 292.05-16.2L292.05-16.2Q292.05-13.5 291.27-10.58 290.5-7.65 289.05-5.08 287.6-2.5 285.5-0.9 283.4 0.7 280.75 0.7L280.75 0.7Q278.05 0.7 277.05-0.85 276.05-2.4 276.2-4.6L276.2-4.6Q274.7-2.3 272.68-0.8 270.65 0.7 268.5 0.7ZM303.05 0.65L303.05 0.65Q299.25 0.65 297.13-1.53 295-3.7 295-7.6L295-7.6Q295-11.15 296.55-14.05 298.1-16.95 300.73-18.68 303.35-20.4 306.5-20.4L306.5-20.4Q309.5-20.4 311.3-18.93 313.1-17.45 313.1-15L313.1-15Q313.1-13.05 311.9-11.4 310.7-9.75 308.7-8.78 306.7-7.8 304.25-7.8L304.25-7.8Q301.25-7.8 299.35-9.15L299.35-9.15Q299.4-6.85 300.93-5.45 302.45-4.05 304.85-4.05L304.85-4.05Q306.3-4.05 307.82-4.58 309.35-5.1 310.45-6L310.45-6Q311.15-6.6 311.75-6.6L311.75-6.6Q312.25-6.6 312.57-6.28 312.9-5.95 312.9-5.45L312.9-5.45Q312.9-4.35 311-2.55L311-2.55Q307.65 0.65 303.05 0.65ZM303.8-11.1L303.8-11.1Q305.6-11.1 306.8-11.85 308-12.6 308-13.75L308-13.75Q308-14.7 307.2-15.23 306.4-15.75 305-15.75L305-15.75Q303.15-15.75 301.78-14.78 300.4-13.8 299.8-12.05L299.8-12.05Q300.5-11.6 301.6-11.35 302.7-11.1 303.8-11.1ZM324.6 0.65L324.6 0.65Q320.8 0.65 318.68-1.53 316.55-3.7 316.55-7.6L316.55-7.6Q316.55-11.15 318.1-14.05 319.65-16.95 322.28-18.68 324.9-20.4 328.05-20.4L328.05-20.4Q331.05-20.4 332.85-18.93 334.65-17.45 334.65-15L334.65-15Q334.65-13.05 333.45-11.4 332.25-9.75 330.25-8.78 328.25-7.8 325.8-7.8L325.8-7.8Q322.8-7.8 320.9-9.15L320.9-9.15Q320.95-6.85 322.48-5.45 324-4.05 326.4-4.05L326.4-4.05Q327.85-4.05 329.38-4.58 330.9-5.1 332-6L332-6Q332.7-6.6 333.3-6.6L333.3-6.6Q333.8-6.6 334.13-6.28 334.45-5.95 334.45-5.45L334.45-5.45Q334.45-4.35 332.55-2.55L332.55-2.55Q329.2 0.65 324.6 0.65ZM325.35-11.1L325.35-11.1Q327.15-11.1 328.35-11.85 329.55-12.6 329.55-13.75L329.55-13.75Q329.55-14.7 328.75-15.23 327.95-15.75 326.55-15.75L326.55-15.75Q324.7-15.75 323.33-14.78 321.95-13.8 321.35-12.05L321.35-12.05Q322.05-11.6 323.15-11.35 324.25-11.1 325.35-11.1ZM341.3 0.55L341.3 0.55Q339.5 0.55 339.7-0.65L339.7-0.65Q340.25-2.8 340.63-5.03 341-7.25 341-9.3L341-9.3Q341-11.95 340.68-13.18 340.35-14.4 339.8-14.88 339.25-15.35 338.45-15.6L338.45-15.6Q338.1-15.75 337.83-16 337.55-16.25 337.55-16.7L337.55-16.7Q337.55-17.4 338.1-18.25 338.65-19.1 339.68-19.73 340.7-20.35 342-20.35L342-20.35Q343.7-20.35 344.35-19.18 345-18 345-16.1L345-16.1Q345-14.85 344.75-13.3 344.5-11.75 344.25-10.5L344.25-10.5 344.4-10.45Q345.4-13.1 346.83-15.38 348.25-17.65 350.15-19.05 352.05-20.45 354.55-20.45L354.55-20.45Q357.2-20.45 358.6-18.85 360-17.25 360-14.85L360-14.85Q360-13.85 359.78-12.95 359.55-12.05 359.3-11.2L359.3-11.2Q359.05-10.4 358.88-9.55 358.7-8.7 358.7-7.85L358.7-7.85Q358.7-5 361.4-4L361.4-4Q362.1-3.7 362.1-3.1L362.1-3.1Q362.1-2.65 361.8-1.8 361.5-0.95 360.7-0.23 359.9 0.5 358.35 0.5L358.35 0.5Q356.35 0.5 355.25-0.93 354.15-2.35 354.15-4.55L354.15-4.55Q354.15-5.8 354.43-7.08 354.7-8.35 355-9.45L355-9.45Q355.2-10.3 355.38-11.13 355.55-11.95 355.55-12.6L355.55-12.6Q355.55-14.9 353.15-14.9L353.15-14.9Q351.1-14.9 349.55-13.38 348-11.85 346.9-9.55 345.8-7.25 345.1-4.9L345.1-4.9 345.1-3.7Q345.1-1.85 344.08-0.65 343.05 0.55 341.3 0.55ZM381.85 0.5L381.85 0.5Q380.75 0.5 379.98-0.08 379.2-0.65 379.2-2.8L379.2-2.8Q379.2-3.9 379.43-5.48 379.65-7.05 379.9-8.75L379.9-8.75Q380.3-11.15 380.7-14.03 381.1-16.9 381.1-19.75L381.1-19.75Q381.1-22.75 380.9-24.35 380.7-25.95 380.45-26.95L380.45-26.95Q380.35-27.5 380.28-27.95 380.2-28.4 380.2-28.95L380.2-28.95Q380.2-30.55 381.23-31.38 382.25-32.2 383.5-32.2L383.5-32.2Q384.75-32.2 385.6-31.58 386.45-30.95 387.1-30.25L387.1-30.25Q391.4-25.4 394.85-20.08 398.3-14.75 400.6-9.15L400.6-9.15Q400.85-8.75 401.05-8.75L401.05-8.75Q401.35-8.75 401.45-9.15L401.45-9.15Q402.35-15 402.35-19.75L402.35-19.75Q402.35-22.6 402.13-24.28 401.9-25.95 401.58-26.88 401.25-27.8 400.95-28.35L400.95-28.35Q400.8-28.7 400.7-28.98 400.6-29.25 400.6-29.5L400.6-29.5Q400.6-30.1 401.23-30.73 401.85-31.35 402.75-31.75 403.65-32.15 404.5-32.15L404.5-32.15Q405.7-32.15 406.25-31.35 406.8-30.55 406.98-29.38 407.15-28.2 407.15-27L407.15-27Q407.15-25.65 406.9-23.5 406.65-21.35 406.33-18.88 406-16.4 405.78-14 405.55-11.6 405.55-9.75L405.55-9.75Q405.55-8.7 405.63-7.7 405.7-6.7 405.8-5.75L405.8-5.75Q405.95-4.5 405.95-3.55L405.95-3.55Q405.95-1.7 405.03-0.63 404.1 0.45 402.5 0.45L402.5 0.45Q401.4 0.45 400.33-0.2 399.25-0.85 398.7-2.3L398.7-2.3Q396.55-7.8 393.43-13.03 390.3-18.25 386.9-22.05L386.9-22.05Q386.35-22.55 386-22.55L386-22.55Q385.5-22.55 385.35-21.45L385.35-21.45Q385.1-19.55 384.85-17.3 384.6-15.05 384.45-12.93 384.3-10.8 384.3-9.3L384.3-9.3Q384.3-7.6 384.6-6.38 384.9-5.15 385.5-4L385.5-4Q386.05-3 386.05-2.2L386.05-2.2Q386.05-1.25 384.95-0.38 383.85 0.5 381.85 0.5ZM423.7 0.65L423.7 0.65Q420.25 0.65 417.5-0.9 414.75-2.45 413.15-5.4 411.55-8.35 411.55-12.55L411.55-12.55Q411.55-16.35 412.82-19.88 414.1-23.4 416.45-26.23 418.8-29.05 422.15-30.7 425.5-32.35 429.6-32.35L429.6-32.35Q432.6-32.35 434.6-31.4 436.6-30.45 436.6-28.6L436.6-28.6Q436.6-27.7 436.13-26.83 435.65-25.95 434.9-25.35 434.15-24.75 433.35-24.75L433.35-24.75Q432.85-24.75 432.55-25L432.55-25Q429.95-26.75 426.65-26.75L426.65-26.75Q423.15-26.75 420.75-25.13 418.35-23.5 417.13-20.85 415.9-18.2 415.9-15.1L415.9-15.1Q415.9-10.45 418.53-7.7 421.15-4.95 425.55-4.95L425.55-4.95Q427.45-4.95 429.1-5.5 430.75-6.05 431.8-7.1 432.85-8.15 432.85-9.65L432.85-9.65Q432.85-11.15 431.95-11.95 431.05-12.75 429.6-13.13 428.15-13.5 426.45-13.6L426.45-13.6Q425.25-13.7 424.68-13.9 424.1-14.1 424.1-15.1L424.1-15.1Q424.1-16.3 424.85-17.1 425.6-17.9 426.7-18L426.7-18Q428.2-18.15 430.3-18.23 432.4-18.3 434.68-18.32 436.95-18.35 438.95-18.35L438.95-18.35Q439.6-18.35 439.95-18.13 440.3-17.9 440.3-17.2L440.3-17.2Q440.3-16.35 439.93-15.35 439.55-14.35 438.9-13.65 438.25-12.95 437.4-12.95L437.4-12.95 436.6-12.95Q436.75-12.45 436.88-11.83 437-11.2 437-10.4L437-10.4Q437-8.2 435.95-6.23 434.9-4.25 433.05-2.7 431.2-1.15 428.8-0.25 426.4 0.65 423.7 0.65ZM455.1 0.65L455.1 0.65Q449.95 0.65 446.88-2.38 443.8-5.4 443.8-11.3L443.8-11.3Q443.8-13.95 444.53-16.8 445.25-19.65 446.95-22.45L446.95-22.45Q446-21.6 445.15-21.6L445.15-21.6Q443.7-21.6 443.7-23.9L443.7-23.9Q443.7-25.55 444.4-26.55 445.1-27.55 445.75-28.15L445.75-28.15Q446.85-29.1 448.55-30.08 450.25-31.05 452.55-31.7 454.85-32.35 457.7-32.35L457.7-32.35Q464.4-32.35 467.78-28.58 471.15-24.8 471.15-18.1L471.15-18.1Q471.15-14.15 470-10.75 468.85-7.35 466.73-4.8 464.6-2.25 461.65-0.8 458.7 0.65 455.1 0.65ZM456.85-4.95L456.85-4.95Q459.35-4.95 461.78-6.1 464.2-7.25 465.78-9.78 467.35-12.3 467.35-16.35L467.35-16.35Q467.35-20.15 465.9-22.43 464.45-24.7 462.23-25.73 460-26.75 457.55-26.75L457.55-26.75Q455.7-26.75 454.23-26.28 452.75-25.8 451.6-25.25L451.6-25.25Q450.3-23.25 449.15-20.38 448-17.5 448-14.3L448-14.3Q448-11.1 449.25-9.03 450.5-6.95 452.53-5.95 454.55-4.95 456.85-4.95ZM494.75 0.65L494.75 0.65Q491.75 0.65 489.93-1.23 488.1-3.1 488.1-6.6L488.1-6.6Q488.1-9.1 489.08-11.58 490.05-14.05 491.9-16.05 493.75-18.05 496.35-19.25 498.95-20.45 502.2-20.45L502.2-20.45Q505.2-20.45 507.33-19.43 509.45-18.4 509.45-16.65L509.45-16.65Q509.45-16.2 509.35-15.48 509.25-14.75 509.1-14.3L509.1-14.3Q508.95-13.9 508.68-13.58 508.4-13.25 507.95-13.25L507.95-13.25Q507.75-13.25 507.2-13.4L507.2-13.4Q507-12.35 506.9-11.35 506.8-10.35 506.8-9.35L506.8-9.35Q506.8-7.45 507.38-5.98 507.95-4.5 509.65-4.15L509.65-4.15Q510.1-4.05 510.38-3.85 510.65-3.65 510.65-3L510.65-3Q510.65-2.45 510.38-1.6 510.1-0.75 509.33-0.08 508.55 0.6 507.1 0.6L507.1 0.6Q505.15 0.6 504.1-0.83 503.05-2.25 503.05-4.9L503.05-4.9Q501.7-2.45 499.63-0.9 497.55 0.65 494.75 0.65ZM496.35-4.55L496.35-4.55Q498.35-4.55 499.88-5.8 501.4-7.05 502.25-8.95L502.25-8.95Q502.8-10.15 503.1-11.58 503.4-13 503.5-14.4L503.5-14.4Q502.65-14.8 501.55-15.05 500.45-15.3 499.25-15.3L499.25-15.3Q496.2-15.3 494.23-13.5 492.25-11.7 492.25-9L492.25-9Q492.25-7 493.35-5.78 494.45-4.55 496.35-4.55ZM516.55 0.55L516.55 0.55Q514.75 0.55 514.95-0.65L514.95-0.65Q515.5-2.8 515.88-5.03 516.25-7.25 516.25-9.3L516.25-9.3Q516.25-11.95 515.93-13.18 515.6-14.4 515.05-14.88 514.5-15.35 513.7-15.6L513.7-15.6Q513.35-15.75 513.08-16 512.8-16.25 512.8-16.7L512.8-16.7Q512.8-17.4 513.35-18.25 513.9-19.1 514.93-19.73 515.95-20.35 517.25-20.35L517.25-20.35Q518.95-20.35 519.6-19.18 520.25-18 520.25-16.1L520.25-16.1Q520.25-14.85 520-13.3 519.75-11.75 519.5-10.5L519.5-10.5 519.65-10.45Q520.65-13.1 522.08-15.38 523.5-17.65 525.4-19.05 527.3-20.45 529.8-20.45L529.8-20.45Q532.45-20.45 533.85-18.85 535.25-17.25 535.25-14.85L535.25-14.85Q535.25-13.85 535.02-12.95 534.8-12.05 534.55-11.2L534.55-11.2Q534.3-10.4 534.13-9.55 533.95-8.7 533.95-7.85L533.95-7.85Q533.95-5 536.65-4L536.65-4Q537.35-3.7 537.35-3.1L537.35-3.1Q537.35-2.65 537.05-1.8 536.75-0.95 535.95-0.23 535.15 0.5 533.6 0.5L533.6 0.5Q531.6 0.5 530.5-0.93 529.4-2.35 529.4-4.55L529.4-4.55Q529.4-5.8 529.68-7.08 529.95-8.35 530.25-9.45L530.25-9.45Q530.45-10.3 530.63-11.13 530.8-11.95 530.8-12.6L530.8-12.6Q530.8-14.9 528.4-14.9L528.4-14.9Q526.35-14.9 524.8-13.38 523.25-11.85 522.15-9.55 521.05-7.25 520.35-4.9L520.35-4.9 520.35-3.7Q520.35-1.85 519.33-0.65 518.3 0.55 516.55 0.55ZM546.8 0.65L546.8 0.65Q543.8 0.65 542.07-1.35 540.35-3.35 540.35-6.8L540.35-6.8Q540.35-9.35 541.17-11.8 542-14.25 543.5-16.2 545-18.15 547-19.3 549-20.45 551.35-20.45L551.35-20.45Q552.85-20.45 554.02-20 555.2-19.55 556.1-18.85L556.1-18.85Q556.05-22.25 555.75-24.95 555.45-27.65 554.3-29.95L554.3-29.95Q554.1-30.35 553.98-30.68 553.85-31 553.85-31.3L553.85-31.3Q553.85-32 554.42-32.6 555-33.2 555.85-33.6 556.7-34 557.45-34L557.45-34Q558.8-34 559.48-32.83 560.15-31.65 560.35-29.63 560.55-27.6 560.55-25L560.55-25Q560.55-21.2 560.2-18.15 559.85-15.1 559.55-12.8L559.55-12.8Q559.35-11.3 559.2-10.2 559.05-9.1 559.05-8.4L559.05-8.4Q559.05-4.85 562.1-4.2L562.1-4.2Q562.9-4.05 562.9-3.15L562.9-3.15Q562.9-2.6 562.57-1.75 562.25-0.9 561.4-0.23 560.55 0.45 558.95 0.45L558.95 0.45Q556.8 0.45 556.05-1 555.3-2.45 555.3-5.4L555.3-5.4Q553.9-2.85 551.75-1.1 549.6 0.65 546.8 0.65ZM548.35-4.7L548.35-4.7Q549.75-4.7 551.15-5.6 552.55-6.5 553.65-8.05L553.65-8.05Q554.3-9 554.82-10.23 555.35-11.45 555.8-12.7L555.8-12.7Q553.25-15 550.15-15L550.15-15Q547.45-15 545.85-13.38 544.25-11.75 544.25-9.35L544.25-9.35Q544.25-7.3 545.45-6 546.65-4.7 548.35-4.7ZM587.95 0.65L587.95 0.65Q586.1 0.65 584.55 0.3 583-0.05 582-1L582-1Q581.25-1.7 581-2.58 580.75-3.45 580.75-4.5L580.75-4.5Q580.75-6.2 581.05-7.9L581.05-7.9Q581.5-10.85 581.85-14.25 582.2-17.65 582.2-20.55L582.2-20.55Q582.2-21.45 582.13-22.6 582.05-23.75 581.9-24.75L581.9-24.75Q581.55-24.6 581.23-24.48 580.9-24.35 580.65-24.35L580.65-24.35Q580.2-24.35 580.05-24.8 579.9-25.25 579.9-25.8L579.9-25.8Q579.9-27.25 580.58-28.28 581.25-29.3 582.8-30.1L582.8-30.1Q584.45-31 587.13-31.68 589.8-32.35 592.55-32.35L592.55-32.35Q598.8-32.35 602.38-28.68 605.95-25 605.95-18.25L605.95-18.25Q605.95-14.4 604.77-10.98 603.6-7.55 601.3-4.93 599-2.3 595.65-0.83 592.3 0.65 587.95 0.65ZM589.55-4.95L589.55-4.95Q591.8-4.95 594.05-5.65 596.3-6.35 598.13-7.75 599.95-9.15 601.05-11.33 602.15-13.5 602.15-16.55L602.15-16.55Q602.15-20 600.8-22.25 599.45-24.5 597.2-25.6 594.95-26.7 592.2-26.7L592.2-26.7Q590.7-26.7 589.23-26.45 587.75-26.2 586.9-25.95L586.9-25.95Q586.85-23.65 586.63-21.48 586.4-19.3 586.1-17.25L586.1-17.25Q585.8-15.1 585.63-13.05 585.45-11 585.45-9L585.45-9Q585.45-6.5 586.48-5.73 587.5-4.95 589.55-4.95ZM617.75 0.65L617.75 0.65Q614.3 0.65 612.23-1.23 610.15-3.1 610.15-6.75L610.15-6.75Q610.15-8.45 610.63-10.05 611.1-11.65 611.9-13.05L611.9-13.05Q611.1-12.55 610.7-12.55L610.7-12.55Q610.1-12.55 609.88-13.23 609.65-13.9 609.65-14.55L609.65-14.55Q609.65-15.7 610.13-16.38 610.6-17.05 611.05-17.4L611.05-17.4Q612.1-18.3 614.35-19.38 616.6-20.45 619.75-20.45L619.75-20.45Q624.05-20.45 626.43-18.05 628.8-15.65 628.8-11.35L628.8-11.35Q628.8-8 627.4-5.28 626-2.55 623.53-0.95 621.05 0.65 617.75 0.65ZM619.3-4.45L619.3-4.45Q621.8-4.45 623.53-6.03 625.25-7.6 625.25-10.2L625.25-10.2Q625.25-12.9 623.5-14.05 621.75-15.2 619.45-15.2L619.45-15.2Q618.4-15.2 617.55-15 616.7-14.8 615.95-14.5L615.95-14.5Q615.25-13.5 614.7-12.25 614.15-11 614.15-9.5L614.15-9.5Q614.15-7 615.65-5.73 617.15-4.45 619.3-4.45ZM635.45 0.55L635.45 0.55Q633.65 0.55 633.85-0.65L633.85-0.65Q634.4-2.8 634.77-5.03 635.15-7.25 635.15-9.3L635.15-9.3Q635.15-11.95 634.83-13.18 634.5-14.4 633.95-14.88 633.4-15.35 632.6-15.6L632.6-15.6Q632.25-15.75 631.98-16 631.7-16.25 631.7-16.7L631.7-16.7Q631.7-17.4 632.25-18.25 632.8-19.1 633.83-19.73 634.85-20.35 636.15-20.35L636.15-20.35Q637.85-20.35 638.5-19.18 639.15-18 639.15-16.1L639.15-16.1Q639.15-14.85 638.9-13.3 638.65-11.75 638.4-10.5L638.4-10.5 638.55-10.45Q639.55-13.1 640.98-15.38 642.4-17.65 644.3-19.05 646.2-20.45 648.7-20.45L648.7-20.45Q651.35-20.45 652.75-18.85 654.15-17.25 654.15-14.85L654.15-14.85Q654.15-13.85 653.92-12.95 653.7-12.05 653.45-11.2L653.45-11.2Q653.2-10.4 653.02-9.55 652.85-8.7 652.85-7.85L652.85-7.85Q652.85-5 655.55-4L655.55-4Q656.25-3.7 656.25-3.1L656.25-3.1Q656.25-2.65 655.95-1.8 655.65-0.95 654.85-0.23 654.05 0.5 652.5 0.5L652.5 0.5Q650.5 0.5 649.4-0.93 648.3-2.35 648.3-4.55L648.3-4.55Q648.3-5.8 648.58-7.08 648.85-8.35 649.15-9.45L649.15-9.45Q649.35-10.3 649.52-11.13 649.7-11.95 649.7-12.6L649.7-12.6Q649.7-14.9 647.3-14.9L647.3-14.9Q645.25-14.9 643.7-13.38 642.15-11.85 641.05-9.55 639.95-7.25 639.25-4.9L639.25-4.9 639.25-3.7Q639.25-1.85 638.23-0.65 637.2 0.55 635.45 0.55ZM667.35 0.65L667.35 0.65Q663.9 0.65 661.82-1.23 659.75-3.1 659.75-6.75L659.75-6.75Q659.75-8.45 660.22-10.05 660.7-11.65 661.5-13.05L661.5-13.05Q660.7-12.55 660.3-12.55L660.3-12.55Q659.7-12.55 659.47-13.23 659.25-13.9 659.25-14.55L659.25-14.55Q659.25-15.7 659.72-16.38 660.2-17.05 660.65-17.4L660.65-17.4Q661.7-18.3 663.95-19.38 666.2-20.45 669.35-20.45L669.35-20.45Q673.65-20.45 676.02-18.05 678.4-15.65 678.4-11.35L678.4-11.35Q678.4-8 677-5.28 675.6-2.55 673.13-0.95 670.65 0.65 667.35 0.65ZM668.9-4.45L668.9-4.45Q671.4-4.45 673.13-6.03 674.85-7.6 674.85-10.2L674.85-10.2Q674.85-12.9 673.1-14.05 671.35-15.2 669.05-15.2L669.05-15.2Q668-15.2 667.15-15 666.3-14.8 665.55-14.5L665.55-14.5Q664.85-13.5 664.3-12.25 663.75-11 663.75-9.5L663.75-9.5Q663.75-7 665.25-5.73 666.75-4.45 668.9-4.45ZM685.25 0.55L685.25 0.55Q684.45 0.55 683.97 0.28 683.5 0 683.65-0.65L683.65-0.65Q684.2-2.8 684.57-5.03 684.95-7.25 684.95-9.3L684.95-9.3Q684.95-11.95 684.62-13.18 684.3-14.4 683.75-14.88 683.2-15.35 682.4-15.6L682.4-15.6Q682.05-15.75 681.77-16 681.5-16.25 681.5-16.7L681.5-16.7Q681.5-17.4 682.05-18.25 682.6-19.1 683.6-19.73 684.6-20.35 685.9-20.35L685.9-20.35Q687.6-20.35 688.27-19.18 688.95-18 688.95-16.1L688.95-16.1Q689.85-18.1 691.17-19.28 692.5-20.45 694.5-20.45L694.5-20.45Q695.85-20.45 696.75-19.85 697.65-19.25 697.65-17.9L697.65-17.9Q697.65-16.55 696.77-15.38 695.9-14.2 695-14.2L695-14.2Q694.85-14.2 694.65-14.25 694.45-14.3 694.3-14.5L694.3-14.5Q693.65-15.3 692.7-15.3L692.7-15.3Q691.25-15.3 690.15-13.4 689.05-11.5 688.95-8.15L688.95-8.15Q689-6.9 689.02-5.6 689.05-4.3 689.05-3.7L689.05-3.7Q689.05-1.85 688.02-0.65 687 0.55 685.25 0.55ZM705.35 0.65L705.35 0.65Q703.5 0.65 701.9 0.1 700.3-0.45 699.3-1.45 698.3-2.45 698.3-3.85L698.3-3.85Q698.3-4.6 698.67-5.28 699.05-5.95 699.9-5.95L699.9-5.95Q700.35-5.95 700.85-5.7L700.85-5.7Q701.75-5.2 703.15-4.78 704.55-4.35 706.1-4.35L706.1-4.35Q707.85-4.35 709.2-4.85 710.55-5.35 710.55-6.25L710.55-6.25Q710.55-6.95 709.52-7.25 708.5-7.55 706.1-7.9L706.1-7.9Q704.45-8.2 702.9-8.6 701.35-9 700.35-9.98 699.35-10.95 699.35-12.85L699.35-12.85Q699.35-14.7 700.37-16.43 701.4-18.15 703.45-19.3 705.5-20.45 708.45-20.45L708.45-20.45Q710-20.45 711.45-20.1 712.9-19.75 713.85-19.05 714.8-18.35 714.8-17.3L714.8-17.3Q714.8-16.4 714.17-15.65 713.55-14.9 712.72-14.43 711.9-13.95 711.35-13.95L711.35-13.95Q710.95-13.95 710.4-14.5L710.4-14.5Q709.55-15.2 708.52-15.48 707.5-15.75 706.5-15.75L706.5-15.75Q705-15.75 704.07-15.3 703.15-14.85 703.15-14.15L703.15-14.15Q703.15-13.5 703.92-13.1 704.7-12.7 705.85-12.53 707-12.35 708.05-12.2L708.05-12.2Q710.95-11.8 712.65-10.83 714.35-9.85 714.35-7.4L714.35-7.4Q714.35-5.5 713.27-3.63 712.2-1.75 710.17-0.55 708.15 0.65 705.35 0.65Z" opacity="1" transform="matrix(1,0,0,1,0,0)" fill="#60a284" class="slogan-text-1" data-fill-palette-color="secondary" id="text-1"></path></svg></g></svg></g></svg></g></svg></g></svg></g></svg></g></svg></g><g mask="url(#3ce5e3b4-d1c3-41ae-a242-18ab8b2ec3e4)"><g transform="matrix(2.8318992897153086, 0, 0, 2.8318992897153086, 70.32469754595627, 1)"><svg xmlns="http://www.w3.org/2000/svg" xml:space="preserve" viewBox="5.000116941408026 6.707000000000002 89.99988305859198 86.585" x="0" y="0" height="86.585" width="89.99988305859198" class="icon-none" data-fill-palette-color="accent" id="none"><path d="M20.52 29.733c3.729 0 6.764-4.332 6.764-8.064A6.77 6.77 0 0 0 20.52 14.9a6.77 6.77 0 0 0-6.769 6.769c-0.003 3.732 3.033 8.064 6.769 8.064M33.761 34.448c-0.053-0.195-0.089-0.392-0.185-0.57-0.068-0.136-0.174-0.242-0.26-0.359-0.121-0.16-0.228-0.318-0.384-0.449-0.12-0.098-0.263-0.162-0.398-0.242-0.139-0.079-0.251-0.19-0.405-0.245-0.245-0.087-5.628-2.019-10.576-2.271l-0.684 1.359h-0.015l1.8 14.029-2.139 3.739-2.14-3.739 1.8-14.029h-0.018l-0.68-1.359c-4.948 0.253-10.331 2.185-10.575 2.271-0.154 0.059-0.272 0.169-0.408 0.25-0.133 0.077-0.274 0.139-0.39 0.236-0.162 0.134-0.271 0.294-0.396 0.455-0.087 0.115-0.186 0.218-0.25 0.345-0.097 0.185-0.136 0.381-0.192 0.582-0.032 0.115-0.097 0.219-0.112 0.346l-2.137 19.26a2.67 2.67 0 0 0 2.364 2.954q0.147 0.019 0.299 0.019a2.67 2.67 0 0 0 2.654-2.381l1.95-17.547c0.228-0.064 0.476-0.139 0.742-0.215v18.261l-2.128 26.477a3.208 3.208 0 1 0 6.396 0.514l1.927-23.924c0.396 0.175 0.835 0.278 1.296 0.278s0.897-0.104 1.297-0.278l1.923 23.924a3.21 3.21 0 0 0 3.456 2.942 3.21 3.21 0 0 0 2.942-3.456l-2.13-26.477v-18.26q0.4 0.116 0.742 0.215l1.948 17.547a2.684 2.684 0 0 0 2.655 2.381q0.147 0 0.299-0.019a2.677 2.677 0 0 0 2.367-2.954l-2.14-19.26c-0.015-0.125-0.084-0.232-0.115-0.35M85.682 20.69c2.237-1.5 3.781-4.475 3.781-7.147a6.836 6.836 0 0 0-13.672 0c0 2.67 1.544 5.646 3.782 7.147-5.351 1.358-9.322 6.008-9.322 9.457 0 4.067 24.749 4.067 24.749 0 0-3.446-3.967-8.095-9.318-9.457m-3.055 12.503l-3.468-3.46 2.918-7.059h-0.033l-1.13-1.296c0.55 0.195 1.118 0.314 1.713 0.314 0.596 0 1.163-0.117 1.713-0.314l-1.136 1.296h-0.024l2.916 7.059zM85.682 50.737c2.237-1.5 3.781-4.475 3.781-7.147a6.837 6.837 0 0 0-13.672 0c0 2.67 1.544 5.646 3.782 7.147-5.351 1.357-9.322 6.008-9.322 9.456 0 4.066 24.749 4.066 24.749 0 0-3.442-3.967-8.093-9.318-9.456m-3.055 12.505l-3.468-3.463 2.918-7.059h-0.033l-1.13-1.296c0.55 0.196 1.118 0.317 1.713 0.317 0.596 0 1.163-0.121 1.713-0.317l-1.136 1.296h-0.024l2.916 7.059zM85.682 80.786c2.237-1.501 3.781-4.477 3.781-7.149 0-3.776-3.063-6.833-6.836-6.833s-6.836 3.057-6.836 6.833c0 2.671 1.544 5.646 3.782 7.149-5.351 1.355-9.322 6.009-9.322 9.455 0 4.068 24.749 4.068 24.749 0 0-3.446-3.967-8.094-9.318-9.455m-3.055 12.503l-3.468-3.462 2.918-7.059h-0.033l-1.13-1.297c0.55 0.193 1.118 0.313 1.713 0.313 0.596 0 1.163-0.114 1.713-0.313l-1.136 1.297h-0.024l2.916 7.059zM68.44 21.382v-2.871H47.397v30.063h-9.24v2.861h9.24v30.061H68.44v-2.869H50.26V51.438h18.18v-2.864H50.26V21.382z" fill="#a3ebcb" data-fill-palette-color="accent"></path></svg></g></g></svg></g><defs></defs></svg><rect width="395.52" height="247.2" fill="none" stroke="none" visibility="hidden"></rect></g></svg></g></svg>